<svg width="97" height="97" viewBox="0 0 97 97" fill="none" xmlns="http://www.w3.org/2000/svg">
<g clip-path="url(#clip0_2267_887)">
<path d="M36.792 6.17212V24.1721H6.79199V6.17212H36.792ZM6.79199 0.172119C5.20069 0.172119 3.67457 0.80426 2.54935 1.92948C1.42413 3.0547 0.791992 4.58082 0.791992 6.17212L0.791992 24.1721C0.791992 25.7634 1.42413 27.2895 2.54935 28.4148C3.67457 29.54 5.20069 30.1721 6.79199 30.1721H36.792C38.3833 30.1721 39.9094 29.54 41.0346 28.4148C42.1599 27.2895 42.792 25.7634 42.792 24.1721V6.17212C42.792 4.58082 42.1599 3.0547 41.0346 1.92948C39.9094 0.80426 38.3833 0.172119 36.792 0.172119L6.79199 0.172119ZM90.792 72.1721V90.1721H60.792V72.1721H90.792ZM60.792 66.1721C59.2007 66.1721 57.6746 66.8043 56.5494 67.9295C55.4241 69.0547 54.792 70.5808 54.792 72.1721V90.1721C54.792 91.7634 55.4241 93.2895 56.5494 94.4148C57.6746 95.54 59.2007 96.1721 60.792 96.1721H90.792C92.3833 96.1721 93.9094 95.54 95.0346 94.4148C96.1599 93.2895 96.792 91.7634 96.792 90.1721V72.1721C96.792 70.5808 96.1599 69.0547 95.0346 67.9295C93.9094 66.8043 92.3833 66.1721 90.792 66.1721H60.792ZM36.792 48.1721V90.1721H6.79199V48.1721H36.792ZM6.79199 42.1721C5.20069 42.1721 3.67457 42.8043 2.54935 43.9295C1.42413 45.0547 0.791992 46.5808 0.791992 48.1721L0.791992 90.1721C0.791992 91.7634 1.42413 93.2895 2.54935 94.4148C3.67457 95.54 5.20069 96.1721 6.79199 96.1721H36.792C38.3833 96.1721 39.9094 95.54 41.0346 94.4148C42.1599 93.2895 42.792 91.7634 42.792 90.1721V48.1721C42.792 46.5808 42.1599 45.0547 41.0346 43.9295C39.9094 42.8043 38.3833 42.1721 36.792 42.1721H6.79199ZM90.792 6.17212V48.1721H60.792V6.17212H90.792ZM60.792 0.172119C59.2007 0.172119 57.6746 0.80426 56.5494 1.92948C55.4241 3.0547 54.792 4.58082 54.792 6.17212V48.1721C54.792 49.7634 55.4241 51.2895 56.5494 52.4148C57.6746 53.54 59.2007 54.1721 60.792 54.1721H90.792C92.3833 54.1721 93.9094 53.54 95.0346 52.4148C96.1599 51.2895 96.792 49.7634 96.792 48.1721V6.17212C96.792 4.58082 96.1599 3.0547 95.0346 1.92948C93.9094 0.80426 92.3833 0.172119 90.792 0.172119L60.792 0.172119Z" fill="white"/>
</g>
<defs>
<clipPath id="clip0_2267_887">
<rect width="96" height="96" fill="white" transform="translate(0.791992 0.172119)"/>
</clipPath>
</defs>
</svg>
