<svg width="75" height="75" viewBox="0 0 75 75" fill="none" xmlns="http://www.w3.org/2000/svg">
<path d="M13.1865 53.676L5.09277 69.8635H21.2803L13.1865 53.676ZM60.5928 35.176V39.801C63.1435 39.801 65.2178 41.8777 65.2178 44.426V55.9885C65.2178 58.5392 63.1435 60.6135 60.5928 60.6135H23.5928V65.2385H60.5928C65.6941 65.2385 69.8428 61.0899 69.8428 55.9885V44.426C69.8428 39.3247 65.6941 35.176 60.5928 35.176Z" fill="white"/>
<path d="M32.8428 55.9885C32.3405 55.9883 31.852 55.8245 31.4511 55.5221C31.0501 55.2196 30.7586 54.7948 30.6205 54.3119L26.4741 39.801H18.9678V35.176H28.2178C28.72 35.1762 29.2085 35.3399 29.6095 35.6424C30.0104 35.9449 30.302 36.3697 30.4401 36.8525L32.8428 45.2585L39.8705 20.665C40.0092 20.1828 40.3011 19.7588 40.702 19.4571C41.1028 19.1553 41.591 18.9921 42.0928 18.9921C42.5946 18.9921 43.0827 19.1553 43.4836 19.4571C43.8845 19.7588 44.1763 20.1828 44.3151 20.665L48.4614 35.176H55.9678V39.801H46.7178C46.2155 39.8008 45.727 39.637 45.3261 39.3346C44.9251 39.0321 44.6336 38.6073 44.4955 38.1244L42.0928 29.7185L35.0651 54.3119C34.927 54.7948 34.6354 55.2196 34.2345 55.5221C33.8335 55.8245 33.345 55.9883 32.8428 55.9885Z" fill="white"/>
<path d="M9.71777 30.551V18.9885C9.71777 16.4378 11.7921 14.3635 14.3428 14.3635H51.3428V9.73853H14.3428C9.2414 9.73853 5.09277 13.8872 5.09277 18.9885V30.551C5.09277 35.6524 9.2414 39.801 14.3428 39.801V35.176C11.7921 35.176 9.71777 33.1017 9.71777 30.551Z" fill="white"/>
<path d="M62.9053 18.9885C66.7367 18.9885 69.8428 15.8825 69.8428 12.051C69.8428 8.21955 66.7367 5.11353 62.9053 5.11353C59.0738 5.11353 55.9678 8.21955 55.9678 12.051C55.9678 15.8825 59.0738 18.9885 62.9053 18.9885Z" fill="white"/>
</svg>
