<svg width="211" height="131" viewBox="0 0 211 131" fill="none" xmlns="http://www.w3.org/2000/svg">
<rect x="0.175781" y="0.155762" width="210" height="130" rx="10" fill="url(#paint0_linear_2034_4639)"/>
<rect x="0.175781" y="0.155762" width="210" height="130" fill="#F5F3EB"/>
<g clip-path="url(#clip0_2034_4639)">
<path d="M46.2589 30.4058H22.2591C21.2466 30.4058 20.4258 31.2266 20.4258 32.2391V51.5722C20.4258 52.5848 21.2466 53.4056 22.2591 53.4056H46.2589C47.2714 53.4056 48.0922 52.5848 48.0922 51.5722V32.2391C48.0922 31.2266 47.2714 30.4058 46.2589 30.4058Z" fill="#DDDDDD" stroke="#AAAAAA" stroke-width="0.333333"/>
<path d="M29.8007 43.8636L26.5924 41.2386H20.1758M29.8007 43.8636V47.6552M29.8007 43.8636H33.884M29.8007 47.6552V51.4468M29.8007 47.6552H20.1758M33.884 43.8636H37.9673M33.884 43.8636V36.2803M37.9673 43.8636V47.6552M37.9673 43.8636L41.1756 41.2386H47.5922M37.9673 47.6552V51.4468M37.9673 47.6552H47.5922M37.9673 51.4468L41.1756 54.6551H47.5922M37.9673 51.4468H33.884M33.884 51.4468H29.8007M33.884 51.4468V59.0301M29.8007 51.4468L26.5924 54.6551H20.1758" stroke="#AAAAAA" stroke-width="0.333333"/>
</g>
<g clip-path="url(#clip1_2034_4639)">
<path d="M61.0752 40.5729C61.0752 40.8079 61.1633 41.0134 61.3395 41.1899C64.8349 44.6853 64.8642 50.4129 61.3395 53.9082C60.9871 54.2606 60.9871 54.8187 61.3395 55.1419C61.6919 55.4943 62.25 55.4943 62.5732 55.1419C66.7734 50.9417 66.7441 44.1271 62.5732 39.9562C62.2207 39.6038 61.6627 39.6038 61.3395 39.9562C61.1633 40.1324 61.0752 40.3674 61.0752 40.5729Z" fill="black"/>
<path d="M59.1071 52.939C59.4595 53.2914 60.0176 53.2914 60.3407 52.939C61.78 51.4997 62.573 49.5906 62.573 47.5638C62.573 45.5371 61.7799 43.6279 60.3407 42.1886C59.9883 41.8362 59.4302 41.8362 59.1071 42.1886C58.9309 42.3648 58.8428 42.5705 58.8428 42.8056C58.8428 43.0406 58.9309 43.2461 59.1071 43.4225C60.2233 44.5387 60.8107 46.0073 60.8107 47.5641C60.8107 49.1208 60.1938 50.5895 59.1071 51.7057C58.784 52.0579 58.784 52.6159 59.1071 52.939Z" fill="black"/>
<path d="M58.1376 44.3913C57.7852 44.0389 57.2271 44.0389 56.904 44.3913C56.7278 44.5675 56.6396 44.7732 56.6396 45.0082C56.6396 45.2432 56.7278 45.4487 56.904 45.6251C57.9614 46.6825 57.9614 48.4155 56.904 49.4729C56.5515 49.8253 56.5515 50.3834 56.904 50.7065C57.2564 51.059 57.8145 51.059 58.1376 50.7065C59.8705 48.9734 59.8705 46.1536 58.1376 44.3913Z" fill="black"/>
</g>
<defs>
<linearGradient id="paint0_linear_2034_4639" x1="0.175781" y1="65.1558" x2="210.176" y2="65.1558" gradientUnits="userSpaceOnUse">
<stop stop-color="#55F5A3"/>
<stop offset="1" stop-color="#E1FF25" stop-opacity="0.8"/>
</linearGradient>
<clipPath id="clip0_2034_4639">
<rect width="28" height="35" fill="white" transform="translate(20.1758 30.1558)"/>
</clipPath>
<clipPath id="clip1_2034_4639">
<rect width="10" height="23" fill="white" transform="translate(56.1758 36.1558)"/>
</clipPath>
</defs>
</svg>
