<svg width="41" height="40" viewBox="0 0 41 40" fill="none" xmlns="http://www.w3.org/2000/svg">
<path d="M12.1719 0.578084C12.7725 0.578084 13.2863 0.638143 13.7134 0.75826C14.1405 0.878377 14.5275 1.03853 14.8745 1.23873C15.2215 1.43892 15.5285 1.64579 15.7954 1.85933C16.0623 2.07288 16.3293 2.27974 16.5962 2.47994C16.8631 2.68014 17.1567 2.83362 17.4771 2.94039C17.7974 3.04716 18.1644 3.11389 18.5781 3.14058H38.4375C38.7979 3.14058 39.1315 3.20732 39.4385 3.34078C39.7454 3.47424 40.0124 3.65442 40.2393 3.88131C40.4661 4.10819 40.653 4.3818 40.7998 4.70211C40.9466 5.02242 41.0133 5.35608 41 5.70308V13.3906H38.4375V5.70308H18.5781C18.1644 5.70308 17.804 5.76314 17.4971 5.88326C17.1901 6.00338 16.8965 6.16353 16.6162 6.36373C16.3359 6.56392 16.0623 6.77079 15.7954 6.98433C15.5285 7.19788 15.2282 7.40474 14.8945 7.60494C14.5609 7.80514 14.1738 7.95862 13.7334 8.06539C13.293 8.17216 12.7725 8.23889 12.1719 8.26558H2.5625V31.3281H5.125V33.8906H0V3.14058C0 2.78023 0.0667318 2.44657 0.200195 2.13961C0.333659 1.83264 0.513835 1.56571 0.740723 1.33883C0.967611 1.11194 1.24121 0.92509 1.56152 0.77828C1.88184 0.63147 2.21549 0.564738 2.5625 0.578084H12.1719ZM12.1719 5.70308C12.4922 5.70308 12.7725 5.67639 13.0127 5.62301C13.2529 5.56962 13.4731 5.48287 13.6733 5.36275C13.8735 5.24263 14.0671 5.10917 14.2539 4.96236C14.4408 4.81555 14.6543 4.63538 14.8945 4.42183C14.6676 4.22164 14.4608 4.04814 14.2739 3.90133C14.0871 3.75452 13.8869 3.62105 13.6733 3.50094C13.4598 3.38082 13.2396 3.29407 13.0127 3.24068C12.7858 3.1873 12.5055 3.15393 12.1719 3.14058H2.5625V5.70308H12.1719ZM41 15.9531V39.0156H7.6875V15.9531H41ZM38.4375 18.5156H10.25V36.4531H38.4375V18.5156ZM35.875 23.6406H28.1875V21.0781H35.875V23.6406ZM33.3125 28.7656H28.1875V26.2031H33.3125V28.7656ZM33.3125 33.8906H28.1875V31.3281H33.3125V33.8906ZM25.625 33.8906H12.8125V21.0781H25.625V33.8906ZM23.0625 23.6406H15.375V31.3281H23.0625V23.6406Z" fill="#3E76FE"/>
</svg>
