<svg width="39" height="34" viewBox="0 0 39 34" fill="none" xmlns="http://www.w3.org/2000/svg">
<path d="M25.6366 25.75L30.0748 33.4375H27.1177L22.6795 25.75H16.3398L11.9016 33.4375H8.94445L13.3827 25.75H5.4082C5.06839 25.75 4.7425 25.615 4.50222 25.3747C4.26194 25.1345 4.12695 24.8086 4.12695 24.4688V2.6875H1.56445C1.22464 2.6875 0.898753 2.55251 0.658473 2.31223C0.418192 2.07195 0.283203 1.74606 0.283203 1.40625C0.283203 1.06644 0.418192 0.740551 0.658473 0.50027C0.898753 0.259989 1.22464 0.125 1.56445 0.125H37.4395C37.7793 0.125 38.1052 0.259989 38.3454 0.50027C38.5857 0.740551 38.7207 1.06644 38.7207 1.40625C38.7207 1.74606 38.5857 2.07195 38.3454 2.31223C38.1052 2.55251 37.7793 2.6875 37.4395 2.6875H34.877V24.4688C34.877 24.8086 34.742 25.1345 34.5017 25.3747C34.2614 25.615 33.9355 25.75 33.5957 25.75H25.6366ZM32.3145 2.6875H6.68945V23.1875H32.3145V2.6875ZM13.0957 12.9375C13.4355 12.9375 13.7614 13.0725 14.0017 13.3128C14.242 13.5531 14.377 13.8789 14.377 14.2188V16.7812C14.377 17.1211 14.242 17.447 14.0017 17.6872C13.7614 17.9275 13.4355 18.0625 13.0957 18.0625C12.7559 18.0625 12.43 17.9275 12.1897 17.6872C11.9494 17.447 11.8145 17.1211 11.8145 16.7812V14.2188C11.8145 13.8789 11.9494 13.5531 12.1897 13.3128C12.43 13.0725 12.7559 12.9375 13.0957 12.9375ZM19.502 10.375C19.8418 10.375 20.1677 10.51 20.4079 10.7503C20.6482 10.9906 20.7832 11.3164 20.7832 11.6562V16.7812C20.7832 17.1211 20.6482 17.447 20.4079 17.6872C20.1677 17.9275 19.8418 18.0625 19.502 18.0625C19.1621 18.0625 18.8363 17.9275 18.596 17.6872C18.3557 17.447 18.2207 17.1211 18.2207 16.7812V11.6562C18.2207 11.3164 18.3557 10.9906 18.596 10.7503C18.8363 10.51 19.1621 10.375 19.502 10.375ZM25.9082 7.8125C26.248 7.8125 26.5739 7.94749 26.8142 8.18777C27.0545 8.42805 27.1895 8.75394 27.1895 9.09375V16.7812C27.1895 17.1211 27.0545 17.447 26.8142 17.6872C26.5739 17.9275 26.248 18.0625 25.9082 18.0625C25.5684 18.0625 25.2425 17.9275 25.0022 17.6872C24.7619 17.447 24.627 17.1211 24.627 16.7812V9.09375C24.627 8.75394 24.7619 8.42805 25.0022 8.18777C25.2425 7.94749 25.5684 7.8125 25.9082 7.8125Z" fill="#0C21C1"/>
</svg>
