<svg width="40" height="40" viewBox="0 0 40 40" fill="none" xmlns="http://www.w3.org/2000/svg">
<path d="M26.5 1.5H13.5C6.87258 1.5 1.5 6.87258 1.5 13.5V26.5C1.5 33.1274 6.87258 38.5 13.5 38.5H26.5C33.1274 38.5 38.5 33.1274 38.5 26.5V13.5C38.5 6.87258 33.1274 1.5 26.5 1.5Z" stroke="#0C21C1" stroke-width="1.5"/>
<path d="M10 26L14.9 19.48C15.2001 19.0785 15.64 18.8043 16.1326 18.7117C16.6252 18.6191 17.1346 18.7149 17.56 18.98L22.34 22C22.7817 22.2813 23.3161 22.3781 23.8285 22.2697C24.3408 22.1612 24.7901 21.8561 25.08 21.42L30 14" stroke="#0C21C1" stroke-width="1.5" stroke-linecap="round" stroke-linejoin="round"/>
</svg>
