<svg width="30" height="29" viewBox="0 0 30 29" fill="none" xmlns="http://www.w3.org/2000/svg">
<path d="M22.5156 14.3643C22.3575 14.3643 22.2062 14.4004 22.0516 14.4107L20.5184 9.81473C21.1379 9.33776 21.64 8.72531 21.9862 8.0243C22.3324 7.32329 22.5135 6.55233 22.5156 5.77051C22.5156 2.9277 20.2022 0.614258 17.3594 0.614258C14.5166 0.614258 12.2031 2.9277 12.2031 5.77051C12.2031 6.42363 12.3372 7.0441 12.5606 7.61988L7.88219 11.6297C7.10753 11.1747 6.22651 10.9322 5.32812 10.9268C2.48531 10.9268 0.171875 13.2402 0.171875 16.083C0.171875 18.9258 2.48531 21.2393 5.32812 21.2393C6.13702 21.2375 6.93407 21.0448 7.65444 20.6768C8.37481 20.3089 8.99815 19.7761 9.47375 19.1218L15.6664 20.978C15.663 21.0674 15.6406 21.1499 15.6406 21.2393C15.6406 25.0308 18.7241 28.1143 22.5156 28.1143C26.3072 28.1143 29.3906 25.0308 29.3906 21.2393C29.3906 17.4477 26.3072 14.3643 22.5156 14.3643ZM17.3594 4.05176C18.3064 4.05176 19.0781 4.82348 19.0781 5.77051C19.0781 6.71754 18.3064 7.48926 17.3594 7.48926C16.4123 7.48926 15.6406 6.71754 15.6406 5.77051C15.6406 4.82348 16.4123 4.05176 17.3594 4.05176ZM5.32812 17.8018C4.38109 17.8018 3.60938 17.03 3.60938 16.083C3.60938 15.136 4.38109 14.3643 5.32812 14.3643C6.27516 14.3643 7.04688 15.136 7.04688 16.083C7.04688 17.03 6.27516 17.8018 5.32812 17.8018ZM10.4586 15.8286C10.4332 15.2827 10.3213 14.7444 10.1269 14.2336L14.8053 10.2238C15.5524 10.6599 16.3983 10.8983 17.2631 10.9164L18.7842 15.4814C17.9191 16.0479 17.193 16.8023 16.6598 17.6883L10.4586 15.8286ZM22.5156 24.6768C20.6198 24.6768 19.0781 23.135 19.0781 21.2393C19.0781 19.3435 20.6198 17.8018 22.5156 17.8018C24.4114 17.8018 25.9531 19.3452 25.9531 21.2393C25.9531 23.1333 24.4114 24.6768 22.5156 24.6768Z" fill="#0C21C1"/>
</svg>
