<svg width="83" height="83" viewBox="0 0 83 83" fill="none" xmlns="http://www.w3.org/2000/svg">
<path d="M34.3245 75.7334H30.0537C23.9399 75.7243 18.0791 73.2916 13.756 68.9685C9.43294 64.6454 7.00025 58.7846 6.99121 52.6709V30.4625C7.00025 24.3487 9.43294 18.488 13.756 14.1649C18.0791 9.84176 23.9399 7.40906 30.0537 7.40002H52.262C58.3758 7.40906 64.2366 9.84176 68.5597 14.1649C72.8828 18.488 75.3155 24.3487 75.3245 30.4625V34.7334C75.3245 35.413 75.0546 36.0648 74.574 36.5453C74.0934 37.0259 73.4417 37.2959 72.762 37.2959C72.0824 37.2959 71.4306 37.0259 70.9501 36.5453C70.4695 36.0648 70.1995 35.413 70.1995 34.7334V30.4625C70.1905 25.708 68.2978 21.1508 64.9358 17.7888C61.5738 14.4268 57.0166 12.5341 52.262 12.525H30.0537C25.2992 12.5341 20.7419 14.4268 17.38 17.7888C14.018 21.1508 12.1252 25.708 12.1162 30.4625V52.6709C12.1252 57.4254 14.018 61.9826 17.38 65.3446C20.7419 68.7066 25.2992 70.5993 30.0537 70.6084H34.3245C35.0042 70.6084 35.6559 70.8783 36.1365 71.3589C36.6171 71.8395 36.887 72.4912 36.887 73.1709C36.887 73.8505 36.6171 74.5023 36.1365 74.9828C35.6559 75.4634 35.0042 75.7334 34.3245 75.7334Z" fill="white"/>
<path d="M73.6845 50.2108C73.6203 51.6297 73.0901 52.9879 72.1759 54.075C71.2618 55.1621 70.0147 55.9175 68.6278 56.2241L57.8311 58.0008L57.5237 58.3083C57.3887 58.4444 57.284 58.6074 57.2162 58.7866L55.5078 68.7291C55.1577 70.1611 54.3401 71.4355 53.1845 72.3508C52.111 73.2028 50.7954 73.6931 49.4261 73.7516H49.1186C47.7924 73.7384 46.5005 73.3276 45.4103 72.5723C44.32 71.817 43.4813 70.752 43.0028 69.515L33.4703 42.5233C33.0464 41.3565 32.9659 40.0926 33.2384 38.8815C33.5109 37.6704 34.125 36.5627 35.0078 35.69C35.8771 34.7972 36.9971 34.1895 38.2195 33.9475C39.4353 33.6686 40.7062 33.7517 41.8753 34.1866L69.2086 43.685C70.5475 44.1539 71.6995 45.0421 72.4935 46.2177C73.2875 47.3933 73.6812 48.7937 73.6161 50.2108H73.6845Z" fill="white"/>
</svg>
