<svg width="40" height="39" viewBox="0 0 40 39" fill="none" xmlns="http://www.w3.org/2000/svg">
<path d="M39.5469 17.0625H22.4844V7.3125H10.2969V12.1875H17.6094V29.25H10.2969V34.125H22.4844V21.9375H39.5469V39H22.4844V36.5625H7.85938V29.25H0.546875V12.1875H7.85938V4.875H22.4844V0H39.5469V17.0625ZM24.9219 2.4375V4.875H37.1094V2.4375H24.9219ZM24.9219 7.3125V14.625H37.1094V7.3125H24.9219ZM24.9219 24.375V26.8125H37.1094V24.375H24.9219ZM24.9219 29.25V36.5625H37.1094V29.25H24.9219ZM15.1719 26.8125V19.5H2.98438V26.8125H15.1719ZM15.1719 14.625H2.98438V17.0625H15.1719V14.625Z" fill="#0C21C1"/>
</svg>
