<svg width="41" height="42" viewBox="0 0 41 42" fill="none" xmlns="http://www.w3.org/2000/svg">
<path opacity="0.4" d="M9.91116 8.07001C9.31409 8.07001 8.83008 7.69355 8.83008 7.22917V1.34328C8.83008 0.878899 9.31409 0.502441 9.91116 0.502441C10.5082 0.502441 10.9922 0.878899 10.9922 1.34328V7.22917C10.9922 7.69355 10.5082 8.07001 9.91116 8.07001Z" fill="#0C21C1"/>
<path opacity="0.4" d="M29.3711 8.07001C28.7741 8.07001 28.29 7.69355 28.29 7.22917V1.34328C28.29 0.878899 28.7741 0.502441 29.3711 0.502441C29.9682 0.502441 30.4522 0.878899 30.4522 1.34328V7.22917C30.4522 7.69355 29.9682 8.07001 29.3711 8.07001Z" fill="#0C21C1"/>
<path opacity="0.4" d="M22.6706 36.5763H2.8352C2.3467 36.5763 1.95068 36.1814 1.95068 35.6944V15.4099C1.95068 14.9228 2.3467 14.5279 2.8352 14.5279H36.447C36.9355 14.5279 37.3315 14.9228 37.3315 15.4099V25.8052C37.9778 26.2274 38.5716 26.7245 39.1006 27.286V6.59053C39.1006 5.61637 38.3085 4.82666 37.3315 4.82666H32.0244V8.3544C32.0244 9.81564 30.8364 11.0002 29.3708 11.0002C27.9053 11.0002 26.7173 9.81564 26.7173 8.3544V4.82666H12.5649V8.3544C12.5649 9.81564 11.3769 11.0002 9.91137 11.0002C8.44585 11.0002 7.25781 9.81564 7.25781 8.3544V4.82666H1.95068C0.973668 4.82666 0.181641 5.61637 0.181641 6.59053V36.5763C0.181641 37.5505 0.973668 38.3402 1.95068 38.3402H23.3649C23.0758 37.7765 22.8432 37.1856 22.6706 36.5763Z" fill="#0C21C1"/>
<path fill-rule="evenodd" clip-rule="evenodd" d="M40.182 33.4753C40.182 37.9533 36.5519 41.5834 32.0739 41.5834C27.5959 41.5834 23.9658 37.9533 23.9658 33.4753C23.9658 28.9973 27.5959 25.3672 32.0739 25.3672C36.5519 25.3672 40.182 28.9973 40.182 33.4753ZM32.0739 28.0699C31.5764 28.0699 31.173 28.4732 31.173 28.9708V33.4753C31.173 33.9728 31.5764 34.3762 32.0739 34.3762H36.5784C37.076 34.3762 37.4793 33.9728 37.4793 33.4753C37.4793 32.9777 37.076 32.5744 36.5784 32.5744H32.9748V28.9708C32.9748 28.4732 32.5715 28.0699 32.0739 28.0699Z" fill="#0C21C1"/>
</svg>
