<svg width="81" height="81" viewBox="0 0 81 81" fill="none" xmlns="http://www.w3.org/2000/svg">
<path d="M20.1758 60.1558C31.2215 71.2016 49.1301 71.2016 60.1758 60.1558C71.2215 49.1101 71.2215 31.2015 60.1758 20.1558C49.1301 9.11008 31.2215 9.11008 20.1758 20.1558C9.13004 31.2015 9.13004 49.1101 20.1758 60.1558Z" fill="#55F5A3"/>
<path d="M42.7132 37.8476C44.1123 39.2466 44.1123 41.5149 42.7132 42.9139C41.3142 44.3129 39.046 44.3129 37.6469 42.9139C36.2479 41.5149 36.2479 39.2466 37.6469 37.8476C39.046 36.4486 41.3142 36.4486 42.7132 37.8476Z" fill="black"/>
<path d="M53.9371 43.9835C54.8917 44.0133 55.8329 43.646 56.5615 42.9174C57.9592 41.5197 57.9592 39.2507 56.56 37.8515C55.1623 36.4538 52.8933 36.4538 51.4956 37.8515C50.767 38.5801 50.3641 39.5748 50.428 40.516C50.4756 41.3874 50.2823 42.2617 49.628 42.9159C48.9738 43.5702 48.0757 43.6861 47.1702 43.7144C46.3087 43.6813 45.4931 43.9768 44.8105 44.5559C44.7308 44.6228 44.6534 44.6937 44.5785 44.7686C44.5757 44.7713 44.573 44.7741 44.5703 44.7768C44.5681 44.779 44.5658 44.7813 44.5636 44.7835C44.3743 44.9728 44.2106 45.178 44.0726 45.3948C43.6703 46.0178 43.4649 46.7392 43.5109 47.4332C43.5585 48.3045 43.3652 49.1788 42.7109 49.833C42.0567 50.4873 41.1586 50.6033 40.253 50.6315C39.2851 50.5943 38.3751 50.972 37.6465 51.7006C36.2488 53.0983 36.2488 55.3673 37.6495 56.765C39.0472 58.1627 41.3147 58.1642 42.7139 56.765C43.4425 56.0364 43.8187 55.0506 43.7755 54.1005C43.7681 53.2842 43.9257 52.3533 44.58 51.6991C45.2342 51.0449 46.052 50.8813 46.9813 50.9006H47.02C47.7686 50.924 48.509 50.7031 49.1451 50.2553C49.3159 50.1361 49.4786 50.0003 49.631 49.8479C49.6336 49.8454 49.6361 49.8428 49.6386 49.8403C49.6405 49.8384 49.6425 49.8364 49.6444 49.8345C50.0111 49.4678 50.2816 49.0414 50.4559 48.5867C50.6324 48.1339 50.714 47.6543 50.6927 47.1834C50.6852 46.367 50.8428 45.4362 51.4971 44.782C52.1513 44.1278 52.9691 43.9642 53.8985 43.9835H53.9371Z" fill="black"/>
<path d="M40.0846 30.1311C41.0392 30.1608 41.9805 29.7935 42.709 29.0649C44.1067 27.6673 44.1067 25.3982 42.7076 23.999C41.3099 22.6013 39.0408 22.6013 37.6431 23.999C36.9145 24.7276 36.5116 25.7224 36.5755 26.6636C36.6231 27.5349 36.4298 28.4092 35.7756 29.0635C35.1213 29.7177 34.2232 29.8337 33.3177 29.8619C32.4562 29.8289 31.6406 30.1244 30.958 30.7034C30.8784 30.7703 30.8009 30.8412 30.726 30.9162C30.7233 30.9189 30.7205 30.9216 30.7178 30.9244C30.7156 30.9266 30.7134 30.9288 30.7111 30.931C30.5218 31.1203 30.3582 31.3255 30.2201 31.5423C29.8179 32.1654 29.6124 32.8867 29.6584 33.5807C29.706 34.452 29.5127 35.3263 28.8584 35.9806C28.2042 36.6348 27.3061 36.7508 26.4006 36.779C25.4326 36.7419 24.5226 37.1196 23.794 37.8481C22.3963 39.2458 22.3963 41.5149 23.797 42.9126C25.1947 44.3103 27.4622 44.3118 28.8614 42.9126C29.59 42.184 29.9662 41.1982 29.9231 40.248C29.9156 39.4317 30.0732 38.5009 30.7275 37.8467C31.3817 37.1924 32.1995 37.0289 33.1289 37.0482H33.1675C33.9162 37.0715 34.6566 36.8506 35.2926 36.4028C35.4634 36.2837 35.6261 36.1479 35.7785 35.9954C35.7811 35.9929 35.7836 35.9904 35.7861 35.9878C35.7881 35.9859 35.79 35.984 35.7919 35.9821C36.1586 35.6154 36.4291 35.189 36.6035 34.7342C36.7799 34.2815 36.8616 33.8018 36.8402 33.3309C36.8328 32.5146 36.9904 31.5838 37.6446 30.9295C38.2989 30.2753 39.1167 30.1117 40.046 30.1311H40.0846Z" fill="black"/>
</svg>
