<svg width="42" height="37" viewBox="0 0 42 37" fill="none" xmlns="http://www.w3.org/2000/svg">
<path opacity="0.4" d="M39.069 25.5519L32.1851 22.9672C31.8819 22.8539 31.664 22.5769 31.6188 22.2472L31.2659 19.6948C33.7297 18.2584 35.2564 15.5656 35.2637 12.6435V7.3084C35.2609 4.86508 33.4933 2.80806 31.1447 2.5151L30.384 0.943739C30.0193 0.210112 29.1879 -0.135052 28.433 0.133757L23.739 1.86622C22.2854 2.45789 21.087 3.57075 20.3633 5.00085C22.6319 6.95017 23.9415 9.84216 23.9359 12.8901V14.4434C24.1406 16.7924 24.8876 19.0564 26.1143 21.0457C26.5306 21.6904 26.6586 22.4889 26.4656 23.2378C26.2727 23.9867 25.7776 24.6138 25.1061 24.9597C24.8263 25.0971 24.5371 25.2132 24.2409 25.3071L25.4416 25.6788C27.658 26.3566 29.1748 28.4645 29.1641 30.8519V35.143C29.1612 35.4503 29.107 35.7547 29.0038 36.043H40.4919C40.9732 36.043 41.3633 35.64 41.3633 35.143V28.9331C41.3599 27.4209 40.4441 26.0712 39.069 25.5519Z" fill="#3E76FE"/>
<path d="M26.4632 36.043H1.26331C0.76626 36.043 0.363317 35.6336 0.363317 35.1287V30.7694C0.356223 29.1517 1.40197 27.7238 2.92921 27.2658L8.90249 25.4455C9.23742 25.3424 9.48314 25.0514 9.53249 24.6994L9.67829 23.6709C5.8218 24.2661 3.65911 23.1964 3.55831 23.147C3.32715 23.0298 3.15674 22.8173 3.09044 22.5636C3.02414 22.3099 3.06835 22.0395 3.21181 21.8213C4.68069 19.5029 5.55762 16.8493 5.7633 14.1001V12.2716C5.7633 9.99394 6.69258 7.81818 8.32994 6.26226C9.96729 4.70634 12.1662 3.90945 14.4033 4.06129C18.7195 4.42684 22.0217 8.12249 21.9633 12.5221V14.1001C22.1681 16.849 23.0441 19.5027 24.5121 21.8213C24.6555 22.0395 24.6997 22.3099 24.6334 22.5636C24.5671 22.8173 24.3967 23.0298 24.1656 23.147C24.0666 23.1964 21.9039 24.2652 18.0456 23.6709L18.1914 24.6994C18.2407 25.0514 18.4864 25.3424 18.8214 25.4455L24.7974 27.2658C26.3246 27.7238 27.3703 29.1517 27.3632 30.7694V35.1287C27.3632 35.6336 26.9603 36.043 26.4632 36.043Z" fill="#3E76FE"/>
</svg>
