<svg width="78" height="80" viewBox="0 0 78 80" fill="none" xmlns="http://www.w3.org/2000/svg">
<g clip-path="url(#clip0_570_1493)">
<path d="M35.11 40.5198C37.5937 39.4529 40.4067 39.4529 42.8906 40.5198L75.1382 54.3715C76.5257 50.4105 77.2818 46.153 77.2818 41.7182C77.2818 20.5759 60.1426 3.43665 39.0003 3.43665C17.8579 3.43665 0.71875 20.576 0.71875 41.7184C0.71875 46.1532 1.47484 50.4107 2.86234 54.3716L35.11 40.5198Z" fill="#2A428C"/>
<path d="M75.234 54.1002L54.4392 45.1678L54.4731 45.3677C52.9118 45.3107 45.7952 45.2441 43.5299 48.5835C42.5859 49.975 42.6165 51.7677 43.6209 53.9114L43.6315 53.9342L47.6663 59.2253L38.8785 66.0535C38.2838 66.3253 30.6771 69.9036 30.717 74.9213C30.7296 76.5102 31.5165 78.0533 33.0623 79.5413C34.9974 79.8428 36.9806 80 39.0006 80C49.8654 80 59.6699 75.4708 66.6374 68.2008V65.8775L64.2245 64.8411H69.5095C71.9538 61.6211 73.9002 58.0027 75.234 54.1002Z" fill="#92C357"/>
<path d="M35.1087 40.2074L2.76562 54.1002C4.09938 58.0025 6.04579 61.6211 8.49001 64.8411H13.775L11.362 65.8775V68.2008C17.1229 74.2116 24.824 78.3458 33.4595 79.5986C25.5084 72.3389 38.999 66.2555 38.999 66.2555L47.9918 59.268L43.8315 53.8121C39.567 44.7103 54.7511 45.6152 54.7511 45.6152L54.694 45.2781L42.8894 40.2075C40.4056 39.1406 37.5926 39.1406 35.1087 40.2074Z" fill="#6FAF46"/>
<path d="M61.8338 18.2046L51.5027 14.2496C50.6112 13.9083 49.6543 14.5666 49.6543 15.5211V22.8758C49.6543 23.8305 50.6112 24.4888 51.5027 24.1474L61.8338 20.1924C62.7457 19.8435 62.7457 18.5536 61.8338 18.2046Z" fill="#E80054"/>
<path d="M53.1516 57.8151L39.833 52.0943C39.3007 51.8655 38.6977 51.8655 38.1654 52.0943L8.49023 64.841C9.38336 66.0176 10.3419 67.1415 11.3624 68.206L25.7865 62.0102C26.3088 61.7859 26.9107 61.8685 27.3558 62.222C28.9216 63.4654 33.0105 66.2554 38.9993 66.2554C43.2421 66.2554 47.3471 64.8243 50.659 62.2082C48.8597 58.2873 52.3627 57.8613 53.1516 57.8151ZM46.066 60.2027C43.9186 61.3921 41.4902 62.0299 38.9993 62.0299C36.5088 62.0299 34.0799 61.3923 31.9324 60.2029C31.5877 60.012 31.6157 59.5063 31.9777 59.3509L38.9993 56.3348L46.0207 59.3507C46.3827 59.5063 46.4107 60.012 46.066 60.2027Z" fill="#D3DCFB"/>
<path d="M39.0004 39.2064C39.861 39.2064 40.6046 38.712 40.9676 37.9927V1.96703C40.9674 0.880625 40.0868 0 39.0004 0C37.914 0 37.0332 0.880625 37.0332 1.96703V37.9927C37.3962 38.712 38.1396 39.2064 39.0004 39.2064Z" fill="#E9EFFF"/>
<path d="M39.0004 38.9695C37.914 38.9695 37.0332 38.0888 37.0332 37.0024V49.6224C37.3865 48.8907 38.1334 48.3846 39.0004 48.3846C39.8674 48.3846 40.6141 48.8907 40.9676 49.6224V37.0024C40.9674 38.0888 40.0868 38.9695 39.0004 38.9695Z" fill="#D3DCFB"/>
<path d="M44.8945 7.70928V14.7194C44.8945 16.2098 46.1139 17.4291 47.6042 17.4291H52.1482V10.221C52.1482 9.65678 51.8003 9.151 51.2734 8.94944L45.137 6.60022C44.9825 6.93928 44.8945 7.31397 44.8945 7.70928Z" fill="#FF7186"/>
<path d="M47.8107 17.2366C46.4357 17.2366 45.3105 16.1116 45.3105 14.7365V8.26852C45.3105 7.73821 45.4791 7.24618 45.7637 6.8404L41.0254 5.02649V24.8552L51.2727 20.9324C51.7996 20.7307 52.1476 20.2249 52.1476 19.6609V17.2368L47.8107 17.2366Z" fill="#FF4155"/>
<path d="M39.0001 57.58C37.7929 57.58 36.8145 56.6014 36.8145 55.3944V50.2788C36.8145 49.0717 37.793 48.0931 39.0001 48.0931C40.2071 48.0931 41.1857 49.0717 41.1857 50.2788V55.3944C41.1857 56.6014 40.2071 57.58 39.0001 57.58Z" fill="#4F71B6"/>
<path d="M77.2827 41.7185C77.2827 33.9528 74.9681 26.7285 70.9943 20.6938C64.4018 23.3251 57.8782 26.1251 51.6731 29.5595C50.8482 30.016 49.9935 30.5178 49.5082 31.326C48.7184 32.6417 49.1762 34.4196 50.1834 35.5774C51.1906 36.7353 52.6302 37.4088 54.0351 38.0265C59.1571 40.2788 64.4134 42.2263 69.769 43.8467C73.3655 44.9348 75.2932 45.0213 77.2062 44.1521C77.2566 43.3476 77.2827 42.536 77.2827 41.7185Z" fill="#3C58A0"/>
<path d="M0.773438 39.6528C2.6275 43.7808 7.54093 45.7067 11.7786 43.8277L24.5817 38.1503C28.1911 36.5499 30.5179 32.9724 30.5179 29.0241V13.0178C30.5179 9.52956 27.9106 7.13222 25.8142 5.76831C11.7828 10.916 1.60343 24.0439 0.773438 39.6528Z" fill="#3C58A0"/>
<path d="M52.7079 57.6241C52.0062 57.7229 50.867 58.0227 50.2807 58.9355C49.7465 59.7674 49.8026 60.9015 50.447 62.3059C50.4543 62.3216 50.4582 62.3396 50.4646 62.356C50.5295 62.3062 50.5959 62.259 50.6601 62.2082C51.0999 61.8609 51.6971 61.7885 52.212 62.0096L66.6373 68.2059C67.6577 67.1413 68.6163 66.0174 69.5094 64.8409L52.7079 57.6241Z" fill="#E9EFFF"/>
<path d="M39.0006 15.4097C37.7263 15.4097 36.6934 14.3768 36.6934 13.1025V24.8918C36.6934 25.3894 37.0968 25.7929 37.5945 25.7929H40.4067C40.9043 25.7929 41.3078 25.3894 41.3078 24.8918V13.1025C41.3076 14.3768 40.2748 15.4097 39.0006 15.4097Z" fill="#FF7186"/>
<path d="M40.4067 4.08875H37.5945C37.0968 4.08875 36.6934 4.49218 36.6934 4.98968V13.5712C36.6934 14.8455 37.7263 15.8784 39.0006 15.8784C40.2748 15.8784 41.3078 14.8455 41.3078 13.5712V4.98968C41.3076 4.49218 40.9043 4.08875 40.4067 4.08875Z" fill="#F9A0B1"/>
</g>
<defs>
<clipPath id="clip0_570_1493">
<rect width="78" height="80" fill="white"/>
</clipPath>
</defs>
</svg>
