<svg width="78" height="80" viewBox="0 0 78 80" fill="none" xmlns="http://www.w3.org/2000/svg">
<g clip-path="url(#clip0_570_990)">
<path d="M75.2936 53.9252C76.5826 50.0913 77.2818 45.9866 77.2818 41.7183C77.2818 20.576 60.1426 3.43677 39.0003 3.43677C17.8579 3.43677 0.71875 20.576 0.71875 41.7183C0.71875 45.9866 1.41812 50.0913 2.70703 53.9252H75.2936Z" fill="#73C3F9"/>
<path d="M71.3153 2.38818H29.9836L30.5252 12.2229C30.5252 12.2229 29.1953 13.1972 30.1147 14.5544V24.088L30.9358 28.8204C30.9358 28.8204 24.1277 37.6877 30.9358 45.8855C30.9358 45.8855 29.4228 49.7005 29.4228 52.9296C29.4228 56.1588 30.9358 59.5413 30.9358 59.5413C30.9358 59.5413 23.7281 66.4619 30.9358 76.6097L30.1561 78.9635L31.6385 79.2921C34.0205 79.7563 36.4813 80.0001 38.9989 80.0001C41.5166 80.0001 43.9774 79.7563 46.3592 79.2924L48.2667 78.8696C60.0899 75.9293 69.7403 67.493 74.3496 56.4296V5.4224C74.3497 3.74662 72.9911 2.38818 71.3153 2.38818Z" fill="#92C357"/>
<path d="M3.64844 5.4224V56.4296C8.25766 67.4929 17.908 75.929 29.7308 78.8694L30.4475 79.0283L31.2486 76.61C24.041 66.4621 31.2486 59.5416 31.2486 59.5416C31.2486 59.5416 29.7357 56.1591 29.7357 52.9299C29.7357 49.7007 31.2486 45.8858 31.2486 45.8858C24.4405 37.688 31.2486 28.8207 31.2486 28.8207L30.4275 24.0883V14.5544C29.5082 13.1972 30.838 12.2229 30.838 12.2229L30.2964 2.38818H6.68281C5.00703 2.38818 3.64844 3.74662 3.64844 5.4224Z" fill="#6FAF46"/>
<path d="M54.2088 22.7569H23.7924C22.4853 22.7569 21.4219 21.6936 21.4219 20.3864V2.86578C21.4219 2.34516 21.8439 1.92328 22.3644 1.92328C22.8849 1.92328 23.3069 2.34516 23.3069 2.86578V20.3864C23.3069 20.6541 23.5247 20.8719 23.7924 20.8719H54.2088C54.4764 20.8719 54.6942 20.6542 54.6942 20.3864V2.74719C54.6942 2.22656 55.1163 1.80469 55.6367 1.80469C56.1574 1.80469 56.5792 2.22656 56.5792 2.74719V20.3864C56.5792 21.6936 55.5159 22.7569 54.2088 22.7569Z" fill="#D3DCFB"/>
<path d="M47.1607 12.2228H30.8382C29.8645 12.2228 29.0723 11.4306 29.0723 10.4569V2.74719C29.0723 2.22656 29.4943 1.80469 30.0148 1.80469C30.5354 1.80469 30.9573 2.22656 30.9573 2.74719V10.3378H47.0417V2.77672C47.0417 2.25609 47.4636 1.83422 47.9842 1.83422C48.5048 1.83422 48.9267 2.25609 48.9267 2.77672V10.4569C48.9267 11.4306 48.1345 12.2228 47.1607 12.2228Z" fill="#E9EFFF"/>
<path d="M39.0005 32.3271C33.3021 32.3271 28.666 27.6911 28.666 21.9925C28.666 21.4719 29.088 21.05 29.6085 21.05C30.1291 21.05 30.551 21.4719 30.551 21.9925C30.551 26.6518 34.3415 30.4422 39.0005 30.4422C43.6596 30.4422 47.4501 26.6516 47.4501 21.9925C47.4501 21.4719 47.8721 21.05 48.3926 21.05C48.913 21.05 49.3351 21.4719 49.3351 21.9925C49.3351 27.6911 44.699 32.3271 39.0005 32.3271Z" fill="#E9EFFF"/>
<path d="M74.031 53.656H3.96789C3.44726 53.656 3.02539 53.2341 3.02539 52.7135C3.02539 52.1929 3.44742 51.771 3.96789 51.771H74.0312C74.5518 51.771 74.9737 52.1929 74.9737 52.7135C74.9737 53.2341 74.5516 53.656 74.031 53.656Z" fill="#D3DCFB"/>
<path d="M39.0005 63.048C33.3021 63.048 28.666 58.4121 28.666 52.7136C28.666 47.0151 33.3021 42.3792 39.0005 42.3792C44.699 42.3792 49.3351 47.0151 49.3351 52.7136C49.3351 58.4121 44.699 63.048 39.0005 63.048ZM39.0005 44.264C34.3415 44.264 30.551 48.0546 30.551 52.7135C30.551 57.3726 34.3415 61.1628 39.0005 61.1628C43.6596 61.1628 47.4501 57.3724 47.4501 52.7135C47.4501 48.0545 43.6596 44.264 39.0005 44.264Z" fill="#E9EFFF"/>
<path d="M38.999 73.1001C34.9387 73.1001 31.4195 75.4548 29.7305 78.8695C30.3605 79.0262 30.9966 79.1674 31.6387 79.2924C33.0899 76.724 35.8445 74.9851 38.999 74.9851C42.1535 74.9851 44.908 76.724 46.3593 79.2924C47.0012 79.1674 47.6373 79.0262 48.2674 78.8695C46.5785 75.4548 43.0593 73.1001 38.999 73.1001Z" fill="#E9EFFF"/>
<path d="M73.7284 9.26688C70.4771 9.26688 67.832 6.62173 67.832 3.37048C67.832 2.84985 68.2538 2.42798 68.7745 2.42798C69.2951 2.42798 69.717 2.84985 69.717 3.37048C69.717 5.58235 71.5165 7.38189 73.7284 7.38189C74.249 7.38189 74.6709 7.80392 74.6709 8.32439C74.6709 8.84485 74.249 9.26688 73.7284 9.26688Z" fill="#D3DCFB"/>
<path d="M4.45812 9.26688C3.9375 9.26688 3.51562 8.84501 3.51562 8.32439C3.51562 7.80376 3.93765 7.38189 4.45812 7.38189C6.67 7.38189 8.46953 5.58235 8.46953 3.37048C8.46953 2.84985 8.89141 2.42798 9.41203 2.42798C9.93265 2.42798 10.3545 2.84985 10.3545 3.37048C10.3543 6.62173 7.70937 9.26688 4.45812 9.26688Z" fill="#D3DCFB"/>
<path d="M39.2472 17.2551H38.753C38.2324 17.2551 37.8105 16.8332 37.8105 16.3126C37.8105 15.792 38.2324 15.3701 38.753 15.3701H39.2472C39.7678 15.3701 40.1897 15.7921 40.1897 16.3126C40.1897 16.8331 39.7677 17.2551 39.2472 17.2551Z" fill="#E9EFFF"/>
<path d="M38.9991 55.0259C38.4785 55.0259 38.0566 54.6041 38.0566 54.0834V51.3131C38.0566 50.7925 38.4785 50.3706 38.9991 50.3706C39.5197 50.3706 39.9416 50.7925 39.9416 51.3131V54.0834C39.9416 54.6041 39.5197 55.0259 38.9991 55.0259Z" fill="#D3DCFB"/>
<path d="M75.2934 53.9252V5.42219C75.2934 3.22938 73.5094 1.44531 71.3166 1.44531H6.68375C4.49094 1.44531 2.70703 3.22938 2.70703 5.42219V53.9252C3.2375 55.5031 3.86906 57.0344 4.59203 58.5128V5.42219C4.59203 4.26875 5.53031 3.33031 6.68375 3.33031H71.3167C72.4702 3.33031 73.4085 4.26875 73.4085 5.42219V58.5128C74.1314 57.0344 74.763 55.5031 75.2934 53.9252Z" fill="#E9EFFF"/>
<path d="M39.2705 5.98219C39.2705 5.98219 40.0077 2.20641 39.2705 1.46922C38.576 0.774687 39.1897 0.0851562 39.2633 0.0075C39.1766 0.0028125 39.0892 0 39.0013 0C36.3686 0 34.2344 2.13406 34.2344 4.76672C34.2344 6.03187 34.7281 7.18094 35.5322 8.03422H42.0756L39.2705 5.98219Z" fill="#3C58A0"/>
<path d="M38.9995 1.46922C39.7367 2.20641 38.9995 5.98219 38.9995 5.98219L41.8047 8.03437H42.4686C43.2727 7.18109 43.7664 6.03187 43.7664 4.76687C43.7664 2.13406 41.6322 0 38.9995 0C38.9995 0 38.2624 0.732031 38.9995 1.46922Z" fill="#4F71B6"/>
<path d="M41.0425 4.05109C41.3081 2.92773 40.6127 1.8018 39.4893 1.53626C38.366 1.27072 37.24 1.96612 36.9745 3.08948C36.7089 4.21284 37.4043 5.33877 38.5277 5.60431C39.6511 5.86986 40.777 5.17446 41.0425 4.05109Z" fill="#FFC7AB"/>
<path d="M42.4143 7.76738C42.3789 7.59597 42.3486 7.42331 42.3282 7.24925C42.2887 6.91097 42.1112 6.12159 41.3121 5.86472C40.444 5.58566 39.441 5.46613 38.4421 5.53488C37.8995 5.84363 37.1738 6.41222 37.1738 7.24456V9.16894C37.7365 9.403 38.3531 9.53378 39.0006 9.53378C40.3681 9.53378 41.6003 8.95706 42.4695 8.03441L42.4143 7.76738Z" fill="#FFDD40"/>
<path d="M36.6888 5.86471C35.8897 6.12158 35.7122 6.91096 35.6727 7.24924C35.6524 7.42314 35.6221 7.5958 35.5866 7.76736L35.5312 8.03455C36.0537 8.58893 36.7077 9.01705 37.4429 9.27158C37.4429 8.73424 37.4429 7.97455 37.4429 7.24455C37.4429 6.3983 38.1926 5.82518 38.7379 5.52002C38.0438 5.54221 37.3452 5.65377 36.6888 5.86471Z" fill="#FFB332"/>
<path d="M13.5554 20.5366C13.5554 20.5366 14.2926 16.7609 13.5554 16.0237C12.8609 15.3291 13.4748 14.6396 13.5482 14.5619C13.4615 14.5573 13.3742 14.5544 13.2862 14.5544C10.6536 14.5544 8.51953 16.6887 8.51953 19.3212C8.51953 20.5863 9.01328 21.7354 9.81734 22.5887H16.3608L13.5554 20.5366Z" fill="#3C58A0"/>
<path d="M13.2847 16.0237C14.0218 16.7609 13.2847 20.5367 13.2847 20.5367L16.0898 22.5889H16.7537C17.5578 21.7356 18.0515 20.5864 18.0515 19.3214C18.0515 16.6887 15.9173 14.5547 13.2847 14.5547C13.2847 14.5547 12.5475 15.2866 13.2847 16.0237Z" fill="#4F71B6"/>
<path d="M15.3179 18.603C15.5835 17.4797 14.8881 16.3538 13.7647 16.0883C12.6414 15.8228 11.5154 16.5181 11.2499 17.6414C10.9843 18.7648 11.6797 19.8907 12.8031 20.1562C13.9265 20.4218 15.0524 19.7264 15.3179 18.603Z" fill="#FFC7AB"/>
<path d="M16.6995 22.3215C16.664 22.1501 16.6337 21.9775 16.6134 21.8034C16.5739 21.4651 16.3964 20.6757 15.5973 20.4189C14.7292 20.1398 13.7262 20.0204 12.7273 20.089C12.1847 20.3978 11.459 20.9664 11.459 21.7987V23.7231C12.0217 23.9571 12.6383 24.0879 13.2858 24.0879C14.6534 24.0879 15.8854 23.5112 16.7547 22.5885L16.6995 22.3215Z" fill="#FF7186"/>
<path d="M10.9739 20.4189C10.1748 20.6758 9.99734 21.4653 9.95781 21.8034C9.9375 21.9773 9.90719 22.15 9.87172 22.3216L9.81641 22.5887C10.3387 23.1431 10.9928 23.5712 11.728 23.8258C11.728 23.2884 11.728 22.5286 11.728 21.7987C11.728 20.9525 12.4777 20.3794 13.023 20.0742C12.3291 20.0964 11.6305 20.2078 10.9739 20.4189Z" fill="#FF4155"/>
<path d="M30.6982 20.5366C30.6982 20.5366 31.4354 16.7609 30.6982 16.0237C30.0037 15.3291 30.6174 14.6396 30.691 14.5619C30.6043 14.5573 30.517 14.5544 30.429 14.5544C27.7963 14.5544 25.6621 16.6887 25.6621 19.3212C25.6621 20.5863 26.1559 21.7354 26.9599 22.5887H33.5034L30.6982 20.5366Z" fill="#3C58A0"/>
<path d="M30.4273 16.0237C31.1645 16.7609 30.4273 20.5367 30.4273 20.5367L33.2325 22.5889H33.8964C34.7004 21.7356 35.1942 20.5864 35.1942 19.3214C35.1942 16.6887 33.06 14.5547 30.4273 14.5547C30.4273 14.5547 29.6901 15.2866 30.4273 16.0237Z" fill="#4F71B6"/>
<path d="M32.4663 18.6075C32.7319 17.4842 32.0365 16.3582 30.9131 16.0927C29.7898 15.8271 28.6638 16.5225 28.3983 17.6459C28.1328 18.7693 28.8282 19.8952 29.9515 20.1607C31.0749 20.4263 32.2008 19.7309 32.4663 18.6075Z" fill="#FFC7AB"/>
<path d="M33.8421 22.3215C33.8066 22.1501 33.7763 21.9775 33.756 21.8034C33.7165 21.4651 33.539 20.6757 32.7399 20.4189C31.8719 20.1398 30.8688 20.0204 29.8699 20.089C29.3272 20.3978 28.6016 20.9664 28.6016 21.7987V23.7231C29.1643 23.9571 29.7808 24.0879 30.4283 24.0879C31.7958 24.0879 33.028 23.5112 33.8972 22.5885L33.8421 22.3215Z" fill="#FF7186"/>
<path d="M28.1165 20.4189C27.3175 20.6758 27.14 21.4653 27.1004 21.8034C27.0801 21.9773 27.0498 22.15 27.0143 22.3216L26.959 22.5887C27.4814 23.1431 28.1354 23.5712 28.8706 23.8258C28.8706 23.2884 28.8706 22.5286 28.8706 21.7987C28.8706 20.9525 29.6203 20.3794 30.1654 20.0742C29.4715 20.0964 28.7731 20.2078 28.1165 20.4189Z" fill="#FF4155"/>
<path d="M47.8406 20.5366C47.8406 20.5366 48.5778 16.7609 47.8406 16.0237C47.1461 15.3291 47.7598 14.6396 47.8334 14.5619C47.7467 14.5573 47.6594 14.5544 47.5714 14.5544C44.9387 14.5544 42.8047 16.6887 42.8047 19.3212C42.8047 20.5863 43.2984 21.7354 44.1025 22.5887H50.6459L47.8406 20.5366Z" fill="#3C58A0"/>
<path d="M47.5718 16.0237C48.309 16.7609 47.5718 20.5367 47.5718 20.5367L50.377 22.5889H51.0409C51.845 21.7356 52.3387 20.5864 52.3387 19.3214C52.3387 16.6887 50.2045 14.5547 47.5718 14.5547C47.5718 14.5547 46.8346 15.2866 47.5718 16.0237Z" fill="#4F71B6"/>
<path d="M49.6128 18.6117C49.8784 17.4883 49.183 16.3624 48.0596 16.0968C46.9363 15.8313 45.8103 16.5267 45.5448 17.6501C45.2793 18.7734 45.9747 19.8993 47.098 20.1649C48.2214 20.4304 49.3473 19.735 49.6128 18.6117Z" fill="#FFC7AB"/>
<path d="M50.9846 22.3215C50.9491 22.1501 50.9188 21.9775 50.8985 21.8034C50.859 21.4651 50.6815 20.6757 49.8824 20.4189C49.0143 20.1398 48.0113 20.0204 47.0124 20.089C46.4697 20.3978 45.7441 20.9664 45.7441 21.7987V23.7231C46.3068 23.9571 46.9233 24.0879 47.5708 24.0879C48.9385 24.0879 50.1705 23.5112 51.0399 22.5885L50.9846 22.3215Z" fill="#FF7186"/>
<path d="M45.261 20.4189C44.4619 20.6758 44.2844 21.4653 44.2449 21.8034C44.2246 21.9773 44.1943 22.15 44.1588 22.3216L44.1035 22.5887C44.6258 23.1431 45.2799 23.5712 46.015 23.8258C46.015 23.2884 46.015 22.5286 46.015 21.7987C46.015 20.9525 46.7647 20.3794 47.31 20.0742C46.616 20.0964 45.9175 20.2078 45.261 20.4189Z" fill="#FF4155"/>
<path d="M64.9834 20.5366C64.9834 20.5366 65.7206 16.7609 64.9834 16.0237C64.2889 15.3291 64.9028 14.6396 64.9762 14.5619C64.8895 14.5573 64.8022 14.5544 64.7142 14.5544C62.0816 14.5544 59.9473 16.6887 59.9473 19.3212C59.9473 20.5863 60.4411 21.7354 61.2452 22.5887H67.7886L64.9834 20.5366Z" fill="#3C58A0"/>
<path d="M64.7143 16.0237C65.4515 16.7609 64.7143 20.5367 64.7143 20.5367L67.5195 22.5889H68.1834C68.9875 21.7356 69.4812 20.5864 69.4812 19.3214C69.4812 16.6887 67.347 14.5547 64.7143 14.5547C64.7143 14.5547 63.9772 15.2866 64.7143 16.0237Z" fill="#4F71B6"/>
<path d="M65.5289 20.0274C66.5956 19.5852 67.102 18.3619 66.6598 17.2951C66.2176 16.2283 64.9944 15.722 63.9276 16.1642C62.8608 16.6064 62.3544 17.8296 62.7966 18.8964C63.2388 19.9632 64.4621 20.4696 65.5289 20.0274Z" fill="#FFC7AB"/>
<path d="M68.1292 22.3215C68.0937 22.1501 68.0634 21.9775 68.0431 21.8034C68.0036 21.4651 67.8261 20.6757 67.027 20.4189C66.1589 20.1398 65.1559 20.0204 64.157 20.089C63.6144 20.3978 62.8887 20.9664 62.8887 21.7987V23.7231C63.4514 23.9571 64.0679 24.0879 64.7154 24.0879C66.0829 24.0879 67.3151 23.5112 68.1844 22.5885L68.1292 22.3215Z" fill="#FF7186"/>
<path d="M62.4037 20.4189C61.6046 20.6758 61.4271 21.4653 61.3876 21.8034C61.3672 21.9773 61.3369 22.15 61.3015 22.3216L61.2461 22.5887C61.7685 23.1431 62.4226 23.5712 63.1577 23.8258C63.1577 23.2884 63.1577 22.5286 63.1577 21.7987C63.1577 20.9525 63.9074 20.3794 64.4526 20.0742C63.7586 20.0964 63.0601 20.2078 62.4037 20.4189Z" fill="#FF4155"/>
<path d="M22.1258 34.1489C22.1258 34.1489 22.863 30.3732 22.1258 29.636C21.4312 28.9414 22.045 28.2519 22.1186 28.1742C22.0319 28.1696 21.9445 28.1667 21.8566 28.1667C19.2239 28.1667 17.0898 30.301 17.0898 32.9336C17.0898 34.1986 17.5836 35.3478 18.3877 36.2011H24.9311L22.1258 34.1489Z" fill="#3C58A0"/>
<path d="M21.8569 29.636C22.5941 30.3732 21.8569 34.1489 21.8569 34.1489L24.6621 36.2011H25.326C26.1301 35.3478 26.6238 34.1986 26.6238 32.9336C26.6238 30.301 24.4896 28.1667 21.8569 28.1667C21.8569 28.1667 21.1198 28.8988 21.8569 29.636Z" fill="#4F71B6"/>
<path d="M23.8883 32.2206C24.1538 31.0972 23.4584 29.9713 22.335 29.7057C21.2117 29.4402 20.0858 30.1356 19.8202 31.2589C19.5547 32.3823 20.2501 33.5082 21.3734 33.7738C22.4968 34.0393 23.6227 33.3439 23.8883 32.2206Z" fill="#FFC7AB"/>
<path d="M25.2698 35.9338C25.2343 35.7624 25.204 35.5898 25.1837 35.4157C25.1441 35.0774 24.9666 34.288 24.1676 34.0312C23.2994 33.7521 22.2965 33.6327 21.2976 33.7013C20.7549 34.0101 20.0293 34.5787 20.0293 35.411V37.3354C20.5919 37.5694 21.2085 37.7002 21.856 37.7002C23.2237 37.7002 24.4557 37.1235 25.3249 36.2009L25.2698 35.9338Z" fill="#FF7186"/>
<path d="M19.5441 34.0315C18.7451 34.2883 18.5676 35.0779 18.5281 35.416C18.5077 35.5899 18.4774 35.7625 18.442 35.9341L18.3867 36.2013C18.909 36.7557 19.5631 37.1838 20.2982 37.4383C20.2982 36.901 20.2982 36.1411 20.2982 35.4113C20.2982 34.565 21.0479 33.9919 21.5932 33.6868C20.8991 33.709 20.2005 33.8205 19.5441 34.0315Z" fill="#FF4155"/>
<path d="M39.2683 34.1489C39.2683 34.1489 40.0055 30.3732 39.2683 29.636C38.5737 28.9414 39.1875 28.2519 39.2611 28.1742C39.1742 28.1696 39.087 28.1667 38.9991 28.1667C36.3664 28.1667 34.2324 30.301 34.2324 32.9336C34.2324 34.1986 34.7261 35.3478 35.5302 36.2011H42.0736L39.2683 34.1489Z" fill="#3C58A0"/>
<path d="M38.9995 29.636C39.7366 30.3732 38.9995 34.1489 38.9995 34.1489L41.8046 36.2011H42.4685C43.2726 35.3478 43.7663 34.1986 43.7663 32.9336C43.7663 30.301 41.6321 28.1667 38.9995 28.1667C38.9995 28.1667 38.2623 28.8988 38.9995 29.636Z" fill="#4F71B6"/>
<path d="M41.0348 32.225C41.3003 31.1016 40.6049 29.9757 39.4815 29.7101C38.3582 29.4446 37.2323 30.14 36.9667 31.2633C36.7012 32.3867 37.3966 33.5126 38.5199 33.7782C39.6433 34.0437 40.7692 33.3483 41.0348 32.225Z" fill="#FFC7AB"/>
<path d="M42.4143 35.9338C42.3789 35.7624 42.3486 35.5898 42.3282 35.4157C42.2887 35.0774 42.1112 34.288 41.3121 34.0312C40.444 33.7521 39.441 33.6327 38.4421 33.7013C37.8995 34.0101 37.1738 34.5787 37.1738 35.411V37.3354C37.7365 37.5694 38.3531 37.7002 39.0006 37.7002C40.3682 37.7002 41.6003 37.1235 42.4695 36.2009L42.4143 35.9338Z" fill="#FF7186"/>
<path d="M36.6888 34.0315C35.8897 34.2883 35.7121 35.0779 35.6726 35.416C35.6523 35.5899 35.622 35.7625 35.5866 35.9341L35.5312 36.2013C36.0536 36.7557 36.7076 37.1838 37.4427 37.4383C37.4427 36.901 37.4427 36.1411 37.4427 35.4113C37.4427 34.565 38.1925 33.9919 38.7378 33.6868C38.0438 33.709 37.3452 33.8205 36.6888 34.0315Z" fill="#FF4155"/>
<path d="M56.4131 34.1489C56.4131 34.1489 57.1502 30.3732 56.4131 29.636C55.7185 28.9414 56.3323 28.2519 56.4059 28.1742C56.3192 28.1696 56.2318 28.1667 56.1438 28.1667C53.5112 28.1667 51.377 30.301 51.377 32.9336C51.377 34.1986 51.8707 35.3478 52.6748 36.2011H59.2181L56.4131 34.1489Z" fill="#3C58A0"/>
<path d="M56.1441 29.636C56.8813 30.3732 56.1441 34.1489 56.1441 34.1489L58.9493 36.2011H59.6132C60.4172 35.3478 60.9109 34.1986 60.9109 32.9336C60.9109 30.301 58.7768 28.1667 56.1441 28.1667C56.1441 28.1667 55.4069 28.8988 56.1441 29.636Z" fill="#4F71B6"/>
<path d="M58.1831 32.2291C58.4486 31.1057 57.7532 29.9798 56.6299 29.7143C55.5065 29.4487 54.3806 30.1441 54.1151 31.2675C53.8495 32.3908 54.5449 33.5168 55.6683 33.7823C56.7916 34.0479 57.9175 33.3525 58.1831 32.2291Z" fill="#FFC7AB"/>
<path d="M59.5568 35.9338C59.5214 35.7624 59.491 35.5898 59.4707 35.4157C59.4312 35.0774 59.2537 34.288 58.4546 34.0312C57.5865 33.7521 56.5835 33.6327 55.5846 33.7013C55.042 34.0101 54.3164 34.5787 54.3164 35.411V37.3354C54.879 37.5694 55.4956 37.7002 56.1431 37.7002C57.5107 37.7002 58.7428 37.1235 59.612 36.2009L59.5568 35.9338Z" fill="#FF7186"/>
<path d="M53.8313 34.0315C53.0323 34.2883 52.8548 35.0779 52.8152 35.416C52.7949 35.5899 52.7646 35.7625 52.7291 35.9341L52.6738 36.2013C53.1962 36.7557 53.8502 37.1838 54.5854 37.4383C54.5854 36.901 54.5854 36.1411 54.5854 35.4113C54.5854 34.565 55.3351 33.9919 55.8802 33.6868C55.1863 33.709 54.4877 33.8205 53.8313 34.0315Z" fill="#FF4155"/>
<path d="M22.1258 47.7617C22.1258 47.7617 22.863 43.9859 22.1258 43.2488C21.4312 42.5542 22.045 41.8647 22.1186 41.787C22.0319 41.7824 21.9445 41.7795 21.8566 41.7795C19.2239 41.7795 17.0898 43.9136 17.0898 46.5463C17.0898 47.8114 17.5836 48.9605 18.3877 49.8138H24.9311L22.1258 47.7617Z" fill="#3C58A0"/>
<path d="M21.8569 43.2488C22.5941 43.986 21.8569 47.7618 21.8569 47.7618L24.6621 49.814H25.326C26.1301 48.9607 26.6238 47.8115 26.6238 46.5465C26.6238 43.9138 24.4896 41.7798 21.8569 41.7798C21.8569 41.7798 21.1198 42.5115 21.8569 43.2488Z" fill="#4F71B6"/>
<path d="M23.8843 45.837C24.1499 44.7136 23.4545 43.5877 22.3311 43.3222C21.2078 43.0566 20.0818 43.752 19.8163 44.8754C19.5507 45.9988 20.2461 47.1247 21.3695 47.3902C22.4929 47.6558 23.6188 46.9604 23.8843 45.837Z" fill="#FFC7AB"/>
<path d="M25.2698 49.5469C25.2343 49.3755 25.204 49.2029 25.1837 49.0288C25.1441 48.6905 24.9666 47.9011 24.1676 47.6443C23.2994 47.3652 22.2965 47.2457 21.2976 47.3144C20.7549 47.6232 20.0293 48.1918 20.0293 49.0241V50.9485C20.5919 51.1826 21.2085 51.3133 21.856 51.3133C23.2237 51.3133 24.4557 50.7366 25.3249 49.814L25.2698 49.5469Z" fill="#FF7186"/>
<path d="M19.5441 47.6442C18.7451 47.9011 18.5676 48.6907 18.5281 49.0288C18.5077 49.2027 18.4774 49.3753 18.442 49.5469L18.3867 49.8141C18.909 50.3685 19.5631 50.7966 20.2982 51.0511C20.2982 50.5138 20.2982 49.7541 20.2982 49.0241C20.2982 48.1778 21.0479 47.6047 21.5932 47.2996C20.8991 47.3216 20.2005 47.4332 19.5441 47.6442Z" fill="#FF4155"/>
<path d="M39.2683 47.7617C39.2683 47.7617 40.0055 43.9859 39.2683 43.2488C38.5737 42.5542 39.1875 41.8647 39.2611 41.787C39.1742 41.7824 39.087 41.7795 38.9991 41.7795C36.3664 41.7795 34.2324 43.9136 34.2324 46.5463C34.2324 47.8114 34.7261 48.9605 35.5302 49.8138H42.0736L39.2683 47.7617Z" fill="#3C58A0"/>
<path d="M38.9995 43.2488C39.7366 43.986 38.9995 47.7618 38.9995 47.7618L41.8046 49.814H42.4685C43.2726 48.9607 43.7663 47.8115 43.7663 46.5465C43.7663 43.9138 41.6321 41.7798 38.9995 41.7798C38.9995 41.7798 38.2623 42.5115 38.9995 43.2488Z" fill="#4F71B6"/>
<path d="M41.0327 45.8412C41.2983 44.7178 40.6029 43.5919 39.4795 43.3263C38.3562 43.0608 37.2302 43.7562 36.9647 44.8795C36.6992 46.0029 37.3945 47.1288 38.5179 47.3944C39.6413 47.6599 40.7672 46.9645 41.0327 45.8412Z" fill="#FFC7AB"/>
<path d="M42.4143 49.5469C42.3789 49.3755 42.3486 49.2029 42.3282 49.0288C42.2887 48.6905 42.1112 47.9011 41.3121 47.6443C40.444 47.3652 39.441 47.2457 38.4421 47.3144C37.8995 47.6232 37.1738 48.1918 37.1738 49.0241V50.9485C37.7365 51.1826 38.3531 51.3133 39.0006 51.3133C40.3682 51.3133 41.6003 50.7366 42.4695 49.814L42.4143 49.5469Z" fill="#FF7186"/>
<path d="M36.6888 47.6442C35.8897 47.9011 35.7121 48.6907 35.6726 49.0288C35.6523 49.2027 35.622 49.3753 35.5866 49.5469L35.5312 49.8141C36.0536 50.3685 36.7076 50.7966 37.4427 51.0511C37.4427 50.5138 37.4427 49.7541 37.4427 49.0241C37.4427 48.1778 38.1925 47.6047 38.7378 47.2996C38.0438 47.3216 37.3452 47.4332 36.6888 47.6442Z" fill="#FF4155"/>
<path d="M56.4131 47.7617C56.4131 47.7617 57.1502 43.9859 56.4131 43.2488C55.7185 42.5542 56.3323 41.8647 56.4059 41.787C56.3192 41.7824 56.2318 41.7795 56.1438 41.7795C53.5112 41.7795 51.377 43.9136 51.377 46.5463C51.377 47.8114 51.8707 48.9605 52.6748 49.8138H59.2181L56.4131 47.7617Z" fill="#3C58A0"/>
<path d="M56.1441 43.2488C56.8813 43.986 56.1441 47.7618 56.1441 47.7618L58.9493 49.814H59.6132C60.4172 48.9607 60.9109 47.8115 60.9109 46.5465C60.9109 43.9138 58.7768 41.7798 56.1441 41.7798C56.1441 41.7798 55.4069 42.5115 56.1441 43.2488Z" fill="#4F71B6"/>
<path d="M58.1792 45.8456C58.4448 44.7222 57.7494 43.5963 56.626 43.3307C55.5027 43.0652 54.3768 43.7606 54.1112 44.8839C53.8457 46.0073 54.5411 47.1332 55.6644 47.3988C56.7878 47.6643 57.9137 46.9689 58.1792 45.8456Z" fill="#FFC7AB"/>
<path d="M59.5568 49.5469C59.5214 49.3755 59.491 49.2029 59.4707 49.0288C59.4312 48.6905 59.2537 47.9011 58.4546 47.6443C57.5865 47.3652 56.5835 47.2457 55.5846 47.3144C55.042 47.6232 54.3164 48.1918 54.3164 49.0241V50.9485C54.879 51.1826 55.4956 51.3133 56.1431 51.3133C57.5107 51.3133 58.7428 50.7366 59.612 49.814L59.5568 49.5469Z" fill="#FF7186"/>
<path d="M53.8313 47.6442C53.0323 47.9011 52.8548 48.6907 52.8152 49.0288C52.7949 49.2027 52.7646 49.3753 52.7291 49.5469L52.6738 49.8141C53.1962 50.3685 53.8502 50.7966 54.5854 51.0511C54.5854 50.5138 54.5854 49.7541 54.5854 49.0241C54.5854 48.1778 55.3351 47.6047 55.8802 47.2996C55.1863 47.3216 54.4877 47.4332 53.8313 47.6442Z" fill="#FF4155"/>
</g>
<defs>
<clipPath id="clip0_570_990">
<rect width="78" height="80" fill="white"/>
</clipPath>
</defs>
</svg>
