<svg width="80" height="78" viewBox="0 0 80 78" fill="none" xmlns="http://www.w3.org/2000/svg">
<g clip-path="url(#clip0_570_1344)">
<path d="M38.2812 0.718506C36.1712 0.718506 34.1018 0.891943 32.0846 1.22038L26.1871 2.67022C21.6924 4.16585 17.5676 6.47101 13.9869 9.41476L12.1502 11.0276C11.0693 12.0377 10.0471 13.1098 9.08898 14.2382L7.3182 16.4887C2.92336 22.5229 0.248985 29.8894 0.0175781 37.8696V40.1304C0.249141 48.1112 2.92383 55.4782 7.31914 61.5126L9.08867 63.7613C10.0168 64.8544 11.0046 65.8949 12.048 66.8771L13.8774 68.4948C17.4551 71.4582 21.5807 73.7829 26.0799 75.2948L31.8671 76.7434C33.9529 77.0952 36.0951 77.2812 38.281 77.2812C59.4233 77.2812 76.5626 60.1419 76.5626 38.9996C76.5626 17.8573 59.4235 0.718506 38.2812 0.718506Z" fill="#73C3F9"/>
<path d="M53.5174 60.982C52.4729 62.6971 52.6638 64.5495 54.393 65.8767C56.7974 65.5473 59.1022 64.9057 61.2637 63.9907L57.8068 60.3674H51.8516C52.3683 60.5926 52.9212 60.7995 53.5174 60.982Z" fill="#BEC8F7"/>
<path d="M54.7319 65.829C51.6814 63.7034 53.8967 60.8449 53.8967 60.8449C53.3938 60.7013 52.9194 60.5415 52.4713 60.3674H43.5274L40.0703 63.9907C43.327 65.3693 46.908 66.1318 50.667 66.1318C52.0486 66.1315 53.4058 66.0276 54.7319 65.829Z" fill="#A2B6F4"/>
<path d="M54.3211 11.9661C53.5755 12.5811 51.936 14.3376 53.4178 17.0075C53.4178 17.0075 52.8766 17.1478 52.0664 17.485H57.8057L61.2625 13.8618C59.0799 12.9379 56.751 12.2925 54.3211 11.9661Z" fill="#BEC8F7"/>
<path d="M54.7318 12.0234C53.4057 11.8246 52.0485 11.7207 50.667 11.7207C46.9079 11.7207 43.3271 12.4832 40.0703 13.8618L43.5273 17.4849H52.5451C53.3553 17.1476 53.8965 17.0074 53.8965 17.0074C52.4582 14.4162 53.9604 12.6854 54.7318 12.0234Z" fill="#A2B6F4"/>
<path d="M69.5645 44.5195L76.2779 48.1198C77.309 45.2479 77.8721 42.1531 77.8721 38.9263C77.8721 35.6996 77.309 32.6048 76.2779 29.7329L69.5645 33.3332V44.5195Z" fill="#E9EFFF"/>
<path d="M31.7685 44.5195L25.0551 48.1198C24.024 45.2479 23.4609 42.1531 23.4609 38.9263C23.4609 35.6996 24.024 32.6048 25.0551 29.7329L31.7685 33.3332V44.5195Z" fill="#A2B6F4"/>
<path d="M76.278 29.7328C73.7091 22.5776 68.2285 16.8101 61.2635 13.8618L57.8066 17.0074L59.4619 28.2553L70.0422 33.3331L76.278 29.7328Z" fill="#D3DCFB"/>
<path d="M25.0547 29.7328C27.6236 22.5776 33.1042 16.8101 40.0692 13.8618L43.5261 17.0074L42.4019 28.5618L31.2905 33.3331L25.0547 29.7328Z" fill="#3C58A0"/>
<path d="M76.278 48.1196C73.7091 55.2748 68.2285 61.0423 61.2635 63.9905L57.8066 60.8449L59.0908 49.3829L70.0422 44.5193L76.278 48.1196Z" fill="#D3DCFB"/>
<path d="M25.0547 48.1196C27.6236 55.2748 33.1042 61.0423 40.0692 63.9905L43.5261 60.8449L42.4219 49.279L31.2905 44.5193L25.0547 48.1196Z" fill="#3C58A0"/>
<path d="M50.6666 43.7234L44.8145 47.5829L44.9751 47.7409C44.8891 48.2998 44.6154 50.5801 45.3693 53.186C46.1209 55.784 48.0757 59.1614 53.093 60.845H57.8063L60.3543 50.1124L50.6666 43.7234Z" fill="#E9EFFF"/>
<path d="M45.2305 47.6575L45.0179 47.4485L40.9785 50.1125L43.5265 60.8451H53.8957C43.3229 57.8272 45.2305 47.6575 45.2305 47.6575Z" fill="#D3DCFB"/>
<path d="M57.8071 17.0076H53.4193C53.4193 17.0076 42.7235 19.7705 45.1463 30.4213C45.1523 30.4473 45.1566 30.4726 45.1623 30.4984L50.6674 34.129L60.3551 27.7399L57.8071 17.0076Z" fill="#E9EFFF"/>
<path d="M53.8957 17.0076H43.5265L40.9785 27.7401L45.7038 30.8565C45.6826 30.7135 45.6371 30.5718 45.6227 30.4213C44.5963 19.7141 53.8957 17.0076 53.8957 17.0076Z" fill="#D3DCFB"/>
<path d="M50.666 33.3331V44.5195L60.3537 50.1126L70.0414 44.5195V33.3331L60.3537 27.74L50.666 33.3331Z" fill="#4F71B6"/>
<path d="M45.4671 30.3313C44.0735 31.0822 42.1289 32.6049 42.1289 35.2615V43.7233C42.1289 43.7233 42.5446 46.365 45.0723 47.7489L50.666 44.5194V33.333L45.4671 30.3313Z" fill="#D3DCFB"/>
<path d="M45.6228 30.4212L40.9786 27.7397L31.291 33.3329V44.5193L40.9786 50.1124L45.2308 47.6574C42.846 46.2519 42.4475 43.7232 42.4475 43.7232C42.4475 43.7232 42.4475 39.4002 42.4475 35.2613C42.4474 32.7072 44.2455 31.201 45.6228 30.4212Z" fill="#BEC8F7"/>
<path d="M40.8589 38.9999C40.8589 53.2968 37.7534 65.4407 31.6289 75.0949C32.6266 74.9316 33.6126 74.757 34.5895 74.5732C40.2505 64.8504 43.1198 52.8959 43.1198 38.9999C43.1198 24.9993 40.3047 13.0254 34.7508 3.36945C33.7825 3.19055 32.8033 3.02039 31.8108 2.86133L31.8117 2.86305C37.815 12.4359 40.8589 24.594 40.8589 38.9999Z" fill="#FF4155"/>
<path d="M17.4446 38.9998C17.4446 49.5229 15.6328 58.8612 12.0488 66.8773C12.6414 67.4352 13.2511 67.9756 13.8785 68.4952C17.8138 60.036 19.8049 50.1534 19.8049 38.9998C19.8049 27.7595 17.8505 17.8467 13.9878 9.41431C13.3578 9.93212 12.7461 10.471 12.1508 11.0274C15.6672 19.0215 17.4446 28.3916 17.4446 38.9998Z" fill="#FF4155"/>
<path d="M56.9347 69.216C56.7865 69.216 56.6358 69.1866 56.4908 69.1246C55.9168 68.8791 55.6505 68.2147 55.896 67.6408C59.4269 59.3857 61.2172 49.7496 61.2172 39C61.2172 28.1255 59.4535 18.4382 55.9752 10.2069C55.7322 9.63192 56.0015 8.96864 56.5765 8.72567C57.1516 8.4827 57.8147 8.75176 58.0577 9.32692C61.6543 17.838 63.478 27.8214 63.478 39C63.478 50.0569 61.6265 59.9921 57.9747 68.5297C57.7911 68.9588 57.3736 69.216 56.9347 69.216Z" fill="#FF4155"/>
<path d="M58.4117 9.18921C51.0859 5.5453 42.195 2.86718 32.0845 1.22046C30.0611 1.54983 28.0907 2.03687 26.187 2.6703C38.3814 4.13812 48.9736 7.01983 57.4047 11.2136C63.9095 14.4491 68.9445 18.4003 72.3697 22.9575C75.9323 27.6975 77.7387 33.095 77.7387 39.0001C77.7387 50.3708 70.7059 59.9134 57.4007 66.5969C51.0397 69.7922 43.3997 72.2634 34.6929 73.9417C31.9078 74.4786 29.0331 74.9292 26.0801 75.2952C27.9487 75.9231 29.8825 76.4089 31.8673 76.7437C32.964 76.562 34.049 76.3683 35.1209 76.1617C44.0315 74.4441 51.869 71.9056 58.4158 68.6172C72.5361 61.5244 79.9997 51.283 79.9997 39.0001C79.9997 26.5226 72.5347 16.2142 58.4117 9.18921Z" fill="#FF4155"/>
<path d="M73.9878 27.878C70.3417 24.9057 65.0426 22.3469 58.2379 20.273C45.8154 16.4869 28.8651 14.4101 9.0893 14.238C8.4718 14.9654 7.88102 15.716 7.31836 16.4887C27.6322 16.5487 44.997 18.6007 57.579 22.4355C66.7759 25.2385 77.739 30.3877 77.739 39.0001C77.739 52.3699 49.4811 61.3841 7.3193 61.5127C7.88149 62.2848 8.4718 63.0348 9.08899 63.7616C28.7512 63.5852 45.7022 61.468 58.2411 57.6088C72.4758 53.2276 79.9998 46.7927 79.9998 39.0001C79.9998 34.8721 77.977 31.1301 73.9878 27.878Z" fill="#FF7186"/>
<path d="M78.8695 37.8696H0.0179687C0.00703125 38.2453 0 38.6218 0 39.0001C0 39.3784 0.00703125 39.755 0.0179687 40.1306H78.8697C79.4939 40.1306 80.0002 39.6245 80.0002 39.0001C80 38.3759 79.4939 37.8696 78.8695 37.8696Z" fill="#FF7186"/>
</g>
<defs>
<clipPath id="clip0_570_1344">
<rect width="80" height="78" fill="white"/>
</clipPath>
</defs>
</svg>
