<svg width="436" height="279" viewBox="0 0 436 279" fill="none" xmlns="http://www.w3.org/2000/svg">
<g clip-path="url(#clip0_1679_690)">
<path d="M317.316 21.2029H31.2776C30.9872 21.1967 30.7107 21.077 30.5075 20.8693C30.3042 20.6617 30.1904 20.3827 30.1904 20.0921C30.1904 19.8015 30.3042 19.5225 30.5075 19.3149C30.7107 19.1073 30.9872 18.9875 31.2776 18.9813H317.316C317.606 18.9875 317.883 19.1073 318.086 19.3149C318.289 19.5225 318.403 19.8015 318.403 20.0921C318.403 20.3827 318.289 20.6617 318.086 20.8693C317.883 21.077 317.606 21.1967 317.316 21.2029Z" fill="#CACACA"/>
<path d="M50.2884 13.3098C53.8831 13.3098 56.7971 10.3303 56.7971 6.65491C56.7971 2.9795 53.8831 0 50.2884 0C46.6938 0 43.7798 2.9795 43.7798 6.65491C43.7798 10.3303 46.6938 13.3098 50.2884 13.3098Z" fill="#3F3D56"/>
<path d="M72.7728 13.3098C76.3675 13.3098 79.2815 10.3303 79.2815 6.65491C79.2815 2.9795 76.3675 0 72.7728 0C69.1782 0 66.2642 2.9795 66.2642 6.65491C66.2642 10.3303 69.1782 13.3098 72.7728 13.3098Z" fill="#3F3D56"/>
<path d="M95.2572 13.3098C98.8518 13.3098 101.766 10.3303 101.766 6.65491C101.766 2.9795 98.8518 0 95.2572 0C91.6626 0 88.7485 2.9795 88.7485 6.65491C88.7485 10.3303 91.6626 13.3098 95.2572 13.3098Z" fill="#3F3D56"/>
<path d="M303.778 1.64954H287.807C287.49 1.65584 287.189 1.78606 286.967 2.01221C286.745 2.23836 286.621 2.54242 286.621 2.85911C286.621 3.1758 286.745 3.47987 286.967 3.70602C287.189 3.93217 287.49 4.06238 287.807 4.06868H303.778C304.095 4.06238 304.396 3.93217 304.618 3.70602C304.84 3.47987 304.964 3.1758 304.964 2.85911C304.964 2.54242 304.84 2.23836 304.618 2.01221C304.396 1.78606 304.095 1.65584 303.778 1.64954Z" fill="#3F3D56"/>
<path d="M303.778 6.18982H287.807C287.49 6.19612 287.189 6.32634 286.967 6.55249C286.745 6.77864 286.621 7.08271 286.621 7.3994C286.621 7.71609 286.745 8.02015 286.967 8.2463C287.189 8.47245 287.49 8.60266 287.807 8.60896H303.778C304.095 8.60266 304.396 8.47245 304.618 8.2463C304.84 8.02015 304.964 7.71609 304.964 7.3994C304.964 7.08271 304.84 6.77864 304.618 6.55249C304.396 6.32634 304.095 6.19612 303.778 6.18982Z" fill="#3F3D56"/>
<path d="M303.778 10.7242H287.807C287.49 10.7305 287.189 10.8608 286.967 11.0869C286.745 11.3131 286.621 11.6171 286.621 11.9338C286.621 12.2505 286.745 12.5546 286.967 12.7807C287.189 13.0069 287.49 13.1371 287.807 13.1434H303.778C304.095 13.1371 304.396 13.0069 304.618 12.7807C304.84 12.5546 304.964 12.2505 304.964 11.9338C304.964 11.6171 304.84 11.3131 304.618 11.0869C304.396 10.8608 304.095 10.7305 303.778 10.7242Z" fill="#3F3D56"/>
<path d="M109.938 222.694L110.33 81.3249C110.341 78.4636 111.486 75.7236 113.515 73.7059C115.543 71.6883 118.289 70.5578 121.15 70.5625L227.895 70.8585C230.756 70.8697 233.496 72.0154 235.513 74.0442C237.53 76.0731 238.66 78.8194 238.656 81.6807L238.264 223.049C238.253 225.911 237.107 228.651 235.079 230.668C233.05 232.686 230.304 233.817 227.444 233.812L120.698 233.516C117.837 233.505 115.098 232.359 113.081 230.33C111.063 228.301 109.933 225.555 109.938 222.694Z" fill="#E6E6E6"/>
<path d="M118.244 180.017L118.496 89.1324C118.507 86.4527 119.579 83.8865 121.479 81.9969C123.379 80.1074 125.95 79.0487 128.63 79.0531L220.368 79.3075C223.048 79.3179 225.613 80.3908 227.503 82.2909C229.392 84.191 230.451 86.7631 230.446 89.4429L230.098 215.242C230.087 217.922 229.014 220.488 227.114 222.377C225.215 224.267 222.643 225.326 219.964 225.321L163.133 225.164C151.199 225.117 139.771 220.338 131.355 211.874C122.94 203.41 118.225 191.954 118.244 180.017Z" fill="white"/>
<path d="M210.063 150.001H138.53C137.392 150.001 136.301 149.549 135.496 148.744C134.691 147.939 134.239 146.847 134.239 145.709C134.239 144.57 134.691 143.478 135.496 142.673C136.301 141.868 137.392 141.416 138.53 141.416H210.063C211.202 141.416 212.293 141.868 213.098 142.673C213.903 143.478 214.355 144.57 214.355 145.709C214.355 146.847 213.903 147.939 213.098 148.744C212.293 149.549 211.202 150.001 210.063 150.001Z" fill="#0080F6"/>
<path d="M154.268 126.46H138.53C137.392 126.46 136.301 126.007 135.496 125.202C134.691 124.397 134.239 123.305 134.239 122.167C134.239 121.028 134.691 119.936 135.496 119.131C136.301 118.326 137.392 117.874 138.53 117.874H154.268C155.406 117.874 156.498 118.326 157.303 119.131C158.107 119.936 158.56 121.028 158.56 122.167C158.56 123.305 158.107 124.397 157.303 125.202C156.498 126.007 155.406 126.46 154.268 126.46Z" fill="#0080F6"/>
<path d="M210.063 187.745H138.53C137.392 187.745 136.301 187.293 135.496 186.488C134.691 185.683 134.239 184.591 134.239 183.453C134.239 182.314 134.691 181.222 135.496 180.417C136.301 179.612 137.392 179.16 138.53 179.16H210.063C211.202 179.16 212.293 179.612 213.098 180.417C213.903 181.222 214.355 182.314 214.355 183.453C214.355 184.591 213.903 185.683 213.098 186.488C212.293 187.293 211.202 187.745 210.063 187.745Z" fill="#0080F6"/>
<path d="M210.063 168.873H138.53C137.392 168.873 136.301 168.421 135.496 167.616C134.691 166.811 134.239 165.719 134.239 164.581C134.239 163.442 134.691 162.35 135.496 161.545C136.301 160.74 137.392 160.288 138.53 160.288H210.063C211.202 160.288 212.293 160.74 213.098 161.545C213.903 162.35 214.355 163.442 214.355 164.581C214.355 165.719 213.903 166.811 213.098 167.616C212.293 168.421 211.202 168.873 210.063 168.873Z" fill="#0080F6"/>
<path d="M17.0777 279C26.5095 279 34.1555 271.353 34.1555 261.919C34.1555 252.486 26.5095 244.838 17.0777 244.838C7.64596 244.838 0 252.486 0 261.919C0 271.353 7.64596 279 17.0777 279Z" fill="#0C21C1"/>
<path d="M14.7481 270.809C14.4532 270.809 14.1623 270.74 13.8985 270.608C13.6348 270.476 13.4054 270.285 13.2285 270.049L8.56943 263.835C8.41942 263.636 8.31021 263.409 8.24806 263.167C8.1859 262.925 8.17201 262.673 8.20718 262.426C8.24235 262.179 8.3259 261.941 8.45304 261.726C8.58017 261.511 8.74841 261.324 8.94813 261.174C9.14785 261.024 9.37513 260.915 9.61698 260.853C9.85884 260.791 10.1105 260.778 10.3576 260.813C10.6047 260.849 10.8424 260.932 11.0571 261.06C11.2718 261.187 11.4593 261.356 11.6089 261.556L14.657 265.62L22.4857 253.875C22.7654 253.456 23.1999 253.166 23.6937 253.067C24.1875 252.969 24.7002 253.07 25.1192 253.35C25.5381 253.629 25.8291 254.063 25.928 254.557C26.027 255.051 25.9259 255.564 25.647 255.983L16.3288 269.963C16.1603 270.216 15.9336 270.424 15.6677 270.572C15.4019 270.719 15.1046 270.8 14.8009 270.808C14.7833 270.809 14.7657 270.809 14.7481 270.809Z" fill="white"/>
<path d="M17.23 224.492H16.0005V228.181H17.23V224.492Z" fill="#2F2E41"/>
<path d="M17.23 217.448H16.0005V210.404H17.23V217.448ZM17.23 203.36H16.0005V196.316H17.23V203.36ZM17.23 189.272H16.0005V182.227H17.23V189.272ZM17.23 175.183H16.0005V168.14H17.23V175.183ZM17.23 161.095H16.0005V154.051H17.23V161.095Z" fill="#2F2E41"/>
<path d="M17.2302 147.008H16.0007V142.703H20.304V143.933H17.2302V147.008Z" fill="#2F2E41"/>
<path d="M78.3374 143.933H71.0832V142.703H78.3374V143.933ZM63.8289 143.933H56.5747V142.703H63.8289V143.933ZM49.3205 143.933H42.0663V142.703H49.3205V143.933ZM34.8121 143.933H27.5579V142.703H34.8121V143.933Z" fill="#2F2E41"/>
<path d="M89.2805 142.703H85.592V143.933H89.2805V142.703Z" fill="#2F2E41"/>
<path d="M412.706 187.386H411.476V191.075H412.706V187.386Z" fill="#2F2E41"/>
<path d="M412.706 179.31H411.476V171.235H412.706V179.31ZM412.706 163.159H411.476V155.083H412.706V163.159Z" fill="#2F2E41"/>
<path d="M412.706 147.008H411.476V143.933H408.402V142.703H412.706V147.008Z" fill="#2F2E41"/>
<path d="M400.76 143.933H393.117V142.703H400.76V143.933ZM385.475 143.933H377.832V142.703H385.475V143.933ZM370.19 143.933H362.548V142.703H370.19V143.933ZM354.905 143.933H347.263V142.703H354.905V143.933ZM339.621 143.933H331.978V142.703H339.621L339.621 143.933ZM324.336 143.933H316.693V142.703H324.336V143.933ZM309.051 143.933H301.409V142.703H309.051V143.933ZM293.766 143.933H286.124V142.703H293.766V143.933ZM278.481 143.933H270.839V142.703H278.481V143.933Z" fill="#2F2E41"/>
<path d="M263.197 142.703H259.508V143.933H263.197V142.703Z" fill="#2F2E41"/>
<path d="M412.477 235.96C421.909 235.96 429.555 228.312 429.555 218.879C429.555 209.445 421.909 201.798 412.477 201.798C403.045 201.798 395.399 209.445 395.399 218.879C395.399 228.312 403.045 235.96 412.477 235.96Z" fill="#0C21C1"/>
<path d="M415.837 218.879L419.196 215.519C419.64 215.073 419.889 214.469 419.889 213.84C419.888 213.211 419.638 212.607 419.193 212.162C418.748 211.717 418.145 211.467 417.516 211.466C416.886 211.466 416.283 211.715 415.837 212.159L412.477 215.519L409.118 212.159C408.672 211.715 408.068 211.466 407.439 211.466C406.81 211.467 406.207 211.717 405.762 212.162C405.317 212.607 405.067 213.211 405.066 213.84C405.065 214.469 405.314 215.073 405.758 215.519L409.118 218.879L405.758 222.239C405.536 222.46 405.36 222.722 405.24 223.01C405.119 223.299 405.057 223.608 405.057 223.921C405.056 224.234 405.117 224.543 405.237 224.832C405.356 225.121 405.531 225.384 405.752 225.605C405.974 225.826 406.236 226.001 406.525 226.121C406.814 226.24 407.124 226.302 407.436 226.301C407.749 226.3 408.058 226.238 408.347 226.118C408.635 225.997 408.897 225.821 409.118 225.599L412.477 222.239L415.837 225.599C416.057 225.821 416.319 225.997 416.608 226.118C416.896 226.238 417.206 226.3 417.518 226.301C417.831 226.302 418.141 226.24 418.43 226.121C418.718 226.001 418.981 225.826 419.202 225.605C419.423 225.384 419.598 225.121 419.718 224.832C419.837 224.543 419.898 224.234 419.898 223.921C419.897 223.608 419.835 223.299 419.715 223.01C419.594 222.722 419.418 222.46 419.196 222.239L415.837 218.879Z" fill="white"/>
<path d="M364.562 116.677L368.25 138.575L403.291 119.751L364.562 116.677Z" fill="#2F2E41"/>
<path d="M360.375 252.833L353.034 252.534L350.697 224.073L361.53 224.515L360.375 252.833Z" fill="#FFB6B6"/>
<path d="M360.873 171.399C374.189 167.339 376.921 149.98 384.234 146.19C384.215 137.022 384.584 108.59 375.433 109.132C370.337 109.433 341.944 161.414 340.727 170.025C338.469 186.003 350.525 226.783 349.126 229.584L363.127 230.47L363.208 229.368C363.43 226.378 365.662 217.364 363.116 215.782L362.152 215.182C362.16 212.074 362.838 206.779 360.035 205.436C360 205.419 359.968 205.395 359.942 205.365C359.917 205.335 359.898 205.3 359.887 205.262C359.875 205.224 359.872 205.184 359.877 205.145C359.883 205.106 359.896 205.068 359.917 205.034L360.873 171.399Z" fill="#2F2E41"/>
<path d="M364.157 259.201L359.248 259.49L358.099 254.907L356.128 259.674L343.109 260.442C342.485 260.479 341.865 260.315 341.341 259.975C340.816 259.635 340.414 259.136 340.193 258.551C339.973 257.966 339.944 257.326 340.113 256.724C340.282 256.122 340.639 255.589 341.131 255.204L351.105 247.409L350.829 242.723L361.803 242.731L364.157 259.201Z" fill="#2F2E41"/>
<path d="M416.326 201.539L423.649 202.132L429.421 174.166L418.614 173.29L416.326 201.539Z" fill="#FFB6B6"/>
<path d="M413.455 130.663C406.888 142.206 395.139 144.962 382.956 146.982C377.659 139.499 369.585 129.067 377.356 124.204C381.684 121.496 419.199 99.5888 424.99 106.077C440.111 123.015 429.324 177.523 430.253 176.318L418.276 176.144L417.571 175.293C416.632 174.161 416.022 172.793 415.805 171.339C415.589 169.884 415.775 168.397 416.343 167.041L416.782 165.993C415.896 164.754 415.379 163.29 415.292 161.769C415.205 160.249 415.55 158.735 416.288 157.403L416.44 157.129L413.455 130.663Z" fill="#2F2E41"/>
<path d="M416.134 191.339L427.028 192.662L426.186 197.28L435.14 206.228C435.582 206.669 435.872 207.241 435.966 207.859C436.061 208.477 435.955 209.109 435.665 209.663C435.375 210.217 434.915 210.664 434.353 210.938C433.792 211.212 433.157 211.299 432.542 211.187L419.712 208.845L418.334 203.874L416.637 208.284L411.799 207.401L416.134 191.339Z" fill="#2F2E41"/>
<path d="M387.669 38.5897H382.643C381.616 38.5897 380.605 38.8386 379.696 39.3151C378.787 39.7916 378.007 40.4814 377.422 41.3255L373.783 46.5829L364.716 48.2323C361.566 50.1778 359.193 53.161 358.006 56.668C356.819 60.175 356.891 63.9863 358.211 67.4456C364.627 84.2301 367.724 115.689 361.488 129.589C361.488 129.589 399.321 133.017 408.824 121.596C418.326 110.175 410.668 54.5761 410.668 54.5761L396.529 46.5829L392.89 41.3256C392.305 40.4815 391.525 39.7916 390.616 39.3151C389.707 38.8386 388.695 38.5897 387.669 38.5897Z" fill="#0080F6"/>
<path d="M411.116 136.828C411.542 136.38 411.863 135.844 412.059 135.258C412.255 134.671 412.32 134.05 412.25 133.436C412.179 132.822 411.975 132.231 411.652 131.704C411.328 131.178 410.893 130.729 410.377 130.389L418.66 103.15L409.438 97.6163L404.321 131.823C403.807 132.727 403.643 133.789 403.86 134.806C404.076 135.824 404.658 136.727 405.496 137.344C406.334 137.961 407.368 138.249 408.404 138.154C409.44 138.059 410.405 137.587 411.116 136.828Z" fill="#FFB6B6"/>
<path d="M419.274 106.224L408.209 101.92L408.681 96.3944L395.534 67.609C394.884 66.1861 394.555 64.6376 394.571 63.0733C394.587 61.5091 394.947 59.9676 395.625 58.5581C396.303 57.1487 397.284 55.9059 398.496 54.918C399.709 53.9301 401.124 53.2214 402.642 52.842C405.383 52.16 408.283 52.5934 410.705 54.0473C413.127 55.5012 414.874 57.8568 415.562 60.5972L424.203 95.1788C425.203 100.546 424.072 104.555 419.274 106.224Z" fill="#0080F6"/>
<path d="M403.967 21.8348C403.967 16.8529 401.988 12.0752 398.466 8.55248C394.944 5.0298 390.167 3.05078 385.186 3.05078C380.205 3.05078 375.429 5.0298 371.906 8.55248C368.384 12.0752 366.406 16.8529 366.406 21.8348V33.6093C366.407 34.2776 366.673 34.9183 367.145 35.3909C367.617 35.8635 368.258 36.1293 368.926 36.1303H369.387C369.92 34.6046 370.244 33.0142 370.352 31.402C371.322 32.8553 372.061 34.4504 372.541 36.1303H401.44C402.109 36.1296 402.75 35.864 403.224 35.3915C403.697 34.9191 403.965 34.2783 403.967 33.6093C405.485 30.5104 406.168 26.9566 403.967 21.8348Z" fill="#2F2E41"/>
<path d="M384.43 36.0142C392.034 36.0142 398.199 29.8486 398.199 22.243C398.199 14.6374 392.034 8.4718 384.43 8.4718C376.826 8.4718 370.661 14.6374 370.661 22.243C370.661 29.8486 376.826 36.0142 384.43 36.0142Z" fill="#FFB8B8"/>
<path d="M370.283 22.19C370.152 22.0381 370.054 21.8597 369.998 21.6669C369.941 21.4741 369.927 21.2714 369.955 21.0724L371.586 9.71291C371.618 9.48177 371.708 9.26233 371.846 9.07447C371.985 8.8866 372.168 8.73624 372.379 8.63697C380.704 4.74004 389.146 4.73511 397.471 8.62221C397.692 8.72691 397.882 8.88715 398.022 9.08727C398.163 9.28738 398.249 9.52051 398.272 9.76386L399.976 18.6787C399.994 18.8732 399.972 19.0693 399.91 19.2547C399.849 19.44 399.749 19.6105 399.618 19.7552C399.353 20.0465 398.982 26.4524 398.588 26.4524C398.92 22.6342 398.116 20.8074 395.204 22.6735C394.938 22.6728 394.677 22.5965 394.452 22.4533C394.227 22.3101 394.048 22.106 393.934 21.8647L392.743 19.311C392.666 19.1456 392.537 19.0098 392.376 18.9241C392.215 18.8383 392.03 18.8073 391.85 18.8357C391.67 18.8641 391.504 18.9503 391.377 19.0814C391.25 19.2124 391.169 19.3812 391.146 19.5623L390.911 21.4453C390.868 21.7842 390.704 22.0959 390.448 22.322C390.192 22.5481 389.862 22.673 389.52 22.6735C384.655 25.0881 378.274 24.4383 371.342 22.6735C371.141 22.6735 370.943 22.6303 370.76 22.5469C370.577 22.4635 370.415 22.3418 370.283 22.19Z" fill="#2F2E41"/>
<path d="M395.409 98.8094H372.842C372.07 98.8085 371.329 98.5011 370.782 97.9545C370.236 97.408 369.929 96.6671 369.928 95.8942V71.6331C369.929 70.8602 370.236 70.1192 370.782 69.5727C371.329 69.0262 372.07 68.7187 372.842 68.7179H395.409C396.182 68.7187 396.922 69.0262 397.469 69.5727C398.015 70.1192 398.323 70.8602 398.324 71.6331V95.8942C398.323 96.667 398.015 97.408 397.469 97.9545C396.922 98.5011 396.182 98.8085 395.409 98.8094Z" fill="#3F3D56"/>
<path d="M373.477 73.9585C374.411 73.9585 375.167 73.2016 375.167 72.2679C375.167 71.3343 374.411 70.5774 373.477 70.5774C372.544 70.5774 371.787 71.3343 371.787 72.2679C371.787 73.2016 372.544 73.9585 373.477 73.9585Z" fill="#E6E6E6"/>
<path d="M373.477 73.2823C374.037 73.2823 374.491 72.8282 374.491 72.268C374.491 71.7078 374.037 71.2537 373.477 71.2537C372.917 71.2537 372.463 71.7078 372.463 72.268C372.463 72.8282 372.917 73.2823 373.477 73.2823Z" fill="#3F3D56"/>
<path d="M399.412 82.4579C398.911 83.015 398.293 83.4554 397.603 83.748C396.913 84.0407 396.167 84.1784 395.418 84.1515C394.669 84.1246 393.935 83.9338 393.268 83.5925C392.6 83.2512 392.016 82.7677 391.556 82.176L371.324 87.7785L368.25 81.0151L392.714 74.714C393.759 74.0064 395.027 73.7068 396.278 73.872C397.529 74.0372 398.677 74.6556 399.502 75.6102C400.328 76.5647 400.775 77.789 400.758 79.0511C400.742 80.3132 400.263 81.5253 399.412 82.4579Z" fill="#FFB8B8"/>
<path d="M373.727 87.9526L368.05 89.765C361.876 96.2892 359.692 91.5551 352.416 91.0652C351.047 90.9731 349.975 89.8491 349.232 87.725C348.219 84.7381 348.32 81.4855 349.516 78.5673L359.623 53.2327L363.853 49.7661L369.76 56.8455L365.225 76.3085L372.67 80.1037L373.727 87.9526Z" fill="#0080F6"/>
</g>
<defs>
<clipPath id="clip0_1679_690">
<rect width="436" height="279" fill="white"/>
</clipPath>
</defs>
</svg>
